<?xml version="1.0" encoding="utf-8" standalone="no"?>
<!DOCTYPE svg PUBLIC "-//W3C//DTD SVG 1.1//EN"
  "http://www.w3.org/Graphics/SVG/1.1/DTD/svg11.dtd">
<!-- Created with matplotlib (https://matplotlib.org/) -->
<svg height="254.370219pt" version="1.1" viewBox="0 0 736.805 254.370219" width="736.805pt" xmlns="http://www.w3.org/2000/svg" xmlns:xlink="http://www.w3.org/1999/xlink">
 <metadata>
  <rdf:RDF xmlns:cc="http://creativecommons.org/ns#" xmlns:dc="http://purl.org/dc/elements/1.1/" xmlns:rdf="http://www.w3.org/1999/02/22-rdf-syntax-ns#">
   <cc:Work>
    <dc:type rdf:resource="http://purl.org/dc/dcmitype/StillImage"/>
    <dc:date>2026-03-30T06:38:46.178637</dc:date>
    <dc:format>image/svg+xml</dc:format>
    <dc:creator>
     <cc:Agent>
      <dc:title>Matplotlib v3.3.4, https://matplotlib.org/</dc:title>
     </cc:Agent>
    </dc:creator>
   </cc:Work>
  </rdf:RDF>
 </metadata>
 <defs>
  <style type="text/css">*{stroke-linecap:butt;stroke-linejoin:round;}</style>
 </defs>
 <g id="figure_1">
  <g id="patch_1">
   <path d="M 0 254.370219 
L 736.805 254.370219 
L 736.805 0 
L 0 0 
z
" style="fill:none;"/>
  </g>
  <g id="axes_1">
   <g id="patch_2">
    <path d="M 49.354531 215.136 
L 319.584318 215.136 
L 319.584318 7.2 
L 49.354531 7.2 
z
" style="fill:#ffffff;"/>
   </g>
   <g id="matplotlib.axis_1">
    <g id="xtick_1">
     <g id="line2d_1">
      <path clip-path="url(#ped31a599c8)" d="M 79.185092 215.136 
L 79.185092 7.2 
" style="fill:none;stroke:#b0b0b0;stroke-linecap:square;stroke-opacity:0.25;stroke-width:0.8;"/>
     </g>
     <g id="line2d_2">
      <defs>
       <path d="M 0 0 
L 0 3.5 
" id="m787b133848" style="stroke:#000000;stroke-width:0.8;"/>
      </defs>
      <g>
       <use style="stroke:#000000;stroke-width:0.8;" x="79.185092" xlink:href="#m787b133848" y="215.136"/>
      </g>
     </g>
     <g id="text_1">
      <!-- 0.02 -->
      <g transform="translate(68.481577 230.009594)scale(0.11 -0.11)">
       <defs>
        <path d="M 4.15625 35.296875 
Q 4.15625 48 6.765625 55.734375 
Q 9.375 63.484375 14.515625 67.671875 
Q 19.671875 71.875 27.484375 71.875 
Q 33.25 71.875 37.59375 69.546875 
Q 41.9375 67.234375 44.765625 62.859375 
Q 47.609375 58.5 49.21875 52.21875 
Q 50.828125 45.953125 50.828125 35.296875 
Q 50.828125 22.703125 48.234375 14.96875 
Q 45.65625 7.234375 40.5 3 
Q 35.359375 -1.21875 27.484375 -1.21875 
Q 17.140625 -1.21875 11.234375 6.203125 
Q 4.15625 15.140625 4.15625 35.296875 
z
M 13.1875 35.296875 
Q 13.1875 17.671875 17.3125 11.828125 
Q 21.4375 6 27.484375 6 
Q 33.546875 6 37.671875 11.859375 
Q 41.796875 17.71875 41.796875 35.296875 
Q 41.796875 52.984375 37.671875 58.78125 
Q 33.546875 64.59375 27.390625 64.59375 
Q 21.34375 64.59375 17.71875 59.46875 
Q 13.1875 52.9375 13.1875 35.296875 
z
" id="ArialMT-48"/>
        <path d="M 9.078125 0 
L 9.078125 10.015625 
L 19.09375 10.015625 
L 19.09375 0 
z
" id="ArialMT-46"/>
        <path d="M 50.34375 8.453125 
L 50.34375 0 
L 3.03125 0 
Q 2.9375 3.171875 4.046875 6.109375 
Q 5.859375 10.9375 9.828125 15.625 
Q 13.8125 20.3125 21.34375 26.46875 
Q 33.015625 36.03125 37.109375 41.625 
Q 41.21875 47.21875 41.21875 52.203125 
Q 41.21875 57.421875 37.46875 61 
Q 33.734375 64.59375 27.734375 64.59375 
Q 21.390625 64.59375 17.578125 60.78125 
Q 13.765625 56.984375 13.71875 50.25 
L 4.6875 51.171875 
Q 5.609375 61.28125 11.65625 66.578125 
Q 17.71875 71.875 27.9375 71.875 
Q 38.234375 71.875 44.234375 66.15625 
Q 50.25 60.453125 50.25 52 
Q 50.25 47.703125 48.484375 43.546875 
Q 46.734375 39.40625 42.65625 34.8125 
Q 38.578125 30.21875 29.109375 22.21875 
Q 21.1875 15.578125 18.9375 13.203125 
Q 16.703125 10.84375 15.234375 8.453125 
z
" id="ArialMT-50"/>
       </defs>
       <use xlink:href="#ArialMT-48"/>
       <use x="55.615234" xlink:href="#ArialMT-46"/>
       <use x="83.398438" xlink:href="#ArialMT-48"/>
       <use x="139.013672" xlink:href="#ArialMT-50"/>
      </g>
     </g>
    </g>
    <g id="xtick_2">
     <g id="line2d_3">
      <path clip-path="url(#ped31a599c8)" d="M 114.27987 215.136 
L 114.27987 7.2 
" style="fill:none;stroke:#b0b0b0;stroke-linecap:square;stroke-opacity:0.25;stroke-width:0.8;"/>
     </g>
     <g id="line2d_4">
      <g>
       <use style="stroke:#000000;stroke-width:0.8;" x="114.27987" xlink:href="#m787b133848" y="215.136"/>
      </g>
     </g>
     <g id="text_2">
      <!-- 0.04 -->
      <g transform="translate(103.576354 230.009594)scale(0.11 -0.11)">
       <defs>
        <path d="M 32.328125 0 
L 32.328125 17.140625 
L 1.265625 17.140625 
L 1.265625 25.203125 
L 33.9375 71.578125 
L 41.109375 71.578125 
L 41.109375 25.203125 
L 50.78125 25.203125 
L 50.78125 17.140625 
L 41.109375 17.140625 
L 41.109375 0 
z
M 32.328125 25.203125 
L 32.328125 57.46875 
L 9.90625 25.203125 
z
" id="ArialMT-52"/>
       </defs>
       <use xlink:href="#ArialMT-48"/>
       <use x="55.615234" xlink:href="#ArialMT-46"/>
       <use x="83.398438" xlink:href="#ArialMT-48"/>
       <use x="139.013672" xlink:href="#ArialMT-52"/>
      </g>
     </g>
    </g>
    <g id="xtick_3">
     <g id="line2d_5">
      <path clip-path="url(#ped31a599c8)" d="M 149.374647 215.136 
L 149.374647 7.2 
" style="fill:none;stroke:#b0b0b0;stroke-linecap:square;stroke-opacity:0.25;stroke-width:0.8;"/>
     </g>
     <g id="line2d_6">
      <g>
       <use style="stroke:#000000;stroke-width:0.8;" x="149.374647" xlink:href="#m787b133848" y="215.136"/>
      </g>
     </g>
     <g id="text_3">
      <!-- 0.06 -->
      <g transform="translate(138.671132 230.009594)scale(0.11 -0.11)">
       <defs>
        <path d="M 49.75 54.046875 
L 41.015625 53.375 
Q 39.84375 58.546875 37.703125 60.890625 
Q 34.125 64.65625 28.90625 64.65625 
Q 24.703125 64.65625 21.53125 62.3125 
Q 17.390625 59.28125 14.984375 53.46875 
Q 12.59375 47.65625 12.5 36.921875 
Q 15.671875 41.75 20.265625 44.09375 
Q 24.859375 46.4375 29.890625 46.4375 
Q 38.671875 46.4375 44.84375 39.96875 
Q 51.03125 33.5 51.03125 23.25 
Q 51.03125 16.5 48.125 10.71875 
Q 45.21875 4.9375 40.140625 1.859375 
Q 35.0625 -1.21875 28.609375 -1.21875 
Q 17.625 -1.21875 10.6875 6.859375 
Q 3.765625 14.9375 3.765625 33.5 
Q 3.765625 54.25 11.421875 63.671875 
Q 18.109375 71.875 29.4375 71.875 
Q 37.890625 71.875 43.28125 67.140625 
Q 48.6875 62.40625 49.75 54.046875 
z
M 13.875 23.1875 
Q 13.875 18.65625 15.796875 14.5 
Q 17.71875 10.359375 21.1875 8.171875 
Q 24.65625 6 28.46875 6 
Q 34.03125 6 38.03125 10.484375 
Q 42.046875 14.984375 42.046875 22.703125 
Q 42.046875 30.125 38.078125 34.390625 
Q 34.125 38.671875 28.125 38.671875 
Q 22.171875 38.671875 18.015625 34.390625 
Q 13.875 30.125 13.875 23.1875 
z
" id="ArialMT-54"/>
       </defs>
       <use xlink:href="#ArialMT-48"/>
       <use x="55.615234" xlink:href="#ArialMT-46"/>
       <use x="83.398438" xlink:href="#ArialMT-48"/>
       <use x="139.013672" xlink:href="#ArialMT-54"/>
      </g>
     </g>
    </g>
    <g id="xtick_4">
     <g id="line2d_7">
      <path clip-path="url(#ped31a599c8)" d="M 184.469425 215.136 
L 184.469425 7.2 
" style="fill:none;stroke:#b0b0b0;stroke-linecap:square;stroke-opacity:0.25;stroke-width:0.8;"/>
     </g>
     <g id="line2d_8">
      <g>
       <use style="stroke:#000000;stroke-width:0.8;" x="184.469425" xlink:href="#m787b133848" y="215.136"/>
      </g>
     </g>
     <g id="text_4">
      <!-- 0.08 -->
      <g transform="translate(173.765909 230.009594)scale(0.11 -0.11)">
       <defs>
        <path d="M 17.671875 38.8125 
Q 12.203125 40.828125 9.5625 44.53125 
Q 6.9375 48.25 6.9375 53.421875 
Q 6.9375 61.234375 12.546875 66.546875 
Q 18.171875 71.875 27.484375 71.875 
Q 36.859375 71.875 42.578125 66.421875 
Q 48.296875 60.984375 48.296875 53.171875 
Q 48.296875 48.1875 45.671875 44.5 
Q 43.0625 40.828125 37.75 38.8125 
Q 44.34375 36.671875 47.78125 31.875 
Q 51.21875 27.09375 51.21875 20.453125 
Q 51.21875 11.28125 44.71875 5.03125 
Q 38.234375 -1.21875 27.640625 -1.21875 
Q 17.046875 -1.21875 10.546875 5.046875 
Q 4.046875 11.328125 4.046875 20.703125 
Q 4.046875 27.6875 7.59375 32.390625 
Q 11.140625 37.109375 17.671875 38.8125 
z
M 15.921875 53.71875 
Q 15.921875 48.640625 19.1875 45.40625 
Q 22.46875 42.1875 27.6875 42.1875 
Q 32.765625 42.1875 36.015625 45.375 
Q 39.265625 48.578125 39.265625 53.21875 
Q 39.265625 58.0625 35.90625 61.359375 
Q 32.5625 64.65625 27.59375 64.65625 
Q 22.5625 64.65625 19.234375 61.421875 
Q 15.921875 58.203125 15.921875 53.71875 
z
M 13.09375 20.65625 
Q 13.09375 16.890625 14.875 13.375 
Q 16.65625 9.859375 20.171875 7.921875 
Q 23.6875 6 27.734375 6 
Q 34.03125 6 38.125 10.046875 
Q 42.234375 14.109375 42.234375 20.359375 
Q 42.234375 26.703125 38.015625 30.859375 
Q 33.796875 35.015625 27.4375 35.015625 
Q 21.234375 35.015625 17.15625 30.90625 
Q 13.09375 26.8125 13.09375 20.65625 
z
" id="ArialMT-56"/>
       </defs>
       <use xlink:href="#ArialMT-48"/>
       <use x="55.615234" xlink:href="#ArialMT-46"/>
       <use x="83.398438" xlink:href="#ArialMT-48"/>
       <use x="139.013672" xlink:href="#ArialMT-56"/>
      </g>
     </g>
    </g>
    <g id="xtick_5">
     <g id="line2d_9">
      <path clip-path="url(#ped31a599c8)" d="M 219.564202 215.136 
L 219.564202 7.2 
" style="fill:none;stroke:#b0b0b0;stroke-linecap:square;stroke-opacity:0.25;stroke-width:0.8;"/>
     </g>
     <g id="line2d_10">
      <g>
       <use style="stroke:#000000;stroke-width:0.8;" x="219.564202" xlink:href="#m787b133848" y="215.136"/>
      </g>
     </g>
     <g id="text_5">
      <!-- 0.10 -->
      <g transform="translate(208.860687 230.009594)scale(0.11 -0.11)">
       <defs>
        <path d="M 37.25 0 
L 28.46875 0 
L 28.46875 56 
Q 25.296875 52.984375 20.140625 49.953125 
Q 14.984375 46.921875 10.890625 45.40625 
L 10.890625 53.90625 
Q 18.265625 57.375 23.78125 62.296875 
Q 29.296875 67.234375 31.59375 71.875 
L 37.25 71.875 
z
" id="ArialMT-49"/>
       </defs>
       <use xlink:href="#ArialMT-48"/>
       <use x="55.615234" xlink:href="#ArialMT-46"/>
       <use x="83.398438" xlink:href="#ArialMT-49"/>
       <use x="139.013672" xlink:href="#ArialMT-48"/>
      </g>
     </g>
    </g>
    <g id="xtick_6">
     <g id="line2d_11">
      <path clip-path="url(#ped31a599c8)" d="M 254.65898 215.136 
L 254.65898 7.2 
" style="fill:none;stroke:#b0b0b0;stroke-linecap:square;stroke-opacity:0.25;stroke-width:0.8;"/>
     </g>
     <g id="line2d_12">
      <g>
       <use style="stroke:#000000;stroke-width:0.8;" x="254.65898" xlink:href="#m787b133848" y="215.136"/>
      </g>
     </g>
     <g id="text_6">
      <!-- 0.12 -->
      <g transform="translate(243.955464 230.009594)scale(0.11 -0.11)">
       <use xlink:href="#ArialMT-48"/>
       <use x="55.615234" xlink:href="#ArialMT-46"/>
       <use x="83.398438" xlink:href="#ArialMT-49"/>
       <use x="139.013672" xlink:href="#ArialMT-50"/>
      </g>
     </g>
    </g>
    <g id="xtick_7">
     <g id="line2d_13">
      <path clip-path="url(#ped31a599c8)" d="M 289.753758 215.136 
L 289.753758 7.2 
" style="fill:none;stroke:#b0b0b0;stroke-linecap:square;stroke-opacity:0.25;stroke-width:0.8;"/>
     </g>
     <g id="line2d_14">
      <g>
       <use style="stroke:#000000;stroke-width:0.8;" x="289.753758" xlink:href="#m787b133848" y="215.136"/>
      </g>
     </g>
     <g id="text_7">
      <!-- 0.14 -->
      <g transform="translate(279.050242 230.009594)scale(0.11 -0.11)">
       <use xlink:href="#ArialMT-48"/>
       <use x="55.615234" xlink:href="#ArialMT-46"/>
       <use x="83.398438" xlink:href="#ArialMT-49"/>
       <use x="139.013672" xlink:href="#ArialMT-52"/>
      </g>
     </g>
    </g>
    <g id="text_8">
     <!-- h -->
     <g transform="translate(181.132862 244.785219)scale(0.12 -0.12)">
      <defs>
       <path d="M 6.59375 0 
L 6.59375 71.578125 
L 15.375 71.578125 
L 15.375 45.90625 
Q 21.53125 53.03125 30.90625 53.03125 
Q 36.671875 53.03125 40.921875 50.75 
Q 45.171875 48.484375 47 44.484375 
Q 48.828125 40.484375 48.828125 32.859375 
L 48.828125 0 
L 40.046875 0 
L 40.046875 32.859375 
Q 40.046875 39.453125 37.1875 42.453125 
Q 34.328125 45.453125 29.109375 45.453125 
Q 25.203125 45.453125 21.75 43.421875 
Q 18.3125 41.40625 16.84375 37.9375 
Q 15.375 34.46875 15.375 28.375 
L 15.375 0 
z
" id="ArialMT-104"/>
      </defs>
      <use xlink:href="#ArialMT-104"/>
     </g>
    </g>
   </g>
   <g id="matplotlib.axis_2">
    <g id="ytick_1">
     <g id="line2d_15">
      <path clip-path="url(#ped31a599c8)" d="M 49.354531 192.383818 
L 319.584318 192.383818 
" style="fill:none;stroke:#b0b0b0;stroke-linecap:square;stroke-opacity:0.25;stroke-width:0.8;"/>
     </g>
     <g id="line2d_16">
      <defs>
       <path d="M 0 0 
L -3.5 0 
" id="me0250be967" style="stroke:#000000;stroke-width:0.8;"/>
      </defs>
      <g>
       <use style="stroke:#000000;stroke-width:0.8;" x="49.354531" xlink:href="#me0250be967" y="192.383818"/>
      </g>
     </g>
     <g id="text_9">
      <!-- 20 -->
      <g transform="translate(30.120469 196.320615)scale(0.11 -0.11)">
       <use xlink:href="#ArialMT-50"/>
       <use x="55.615234" xlink:href="#ArialMT-48"/>
      </g>
     </g>
    </g>
    <g id="ytick_2">
     <g id="line2d_17">
      <path clip-path="url(#ped31a599c8)" d="M 49.354531 162.965561 
L 319.584318 162.965561 
" style="fill:none;stroke:#b0b0b0;stroke-linecap:square;stroke-opacity:0.25;stroke-width:0.8;"/>
     </g>
     <g id="line2d_18">
      <g>
       <use style="stroke:#000000;stroke-width:0.8;" x="49.354531" xlink:href="#me0250be967" y="162.965561"/>
      </g>
     </g>
     <g id="text_10">
      <!-- 40 -->
      <g transform="translate(30.120469 166.902358)scale(0.11 -0.11)">
       <use xlink:href="#ArialMT-52"/>
       <use x="55.615234" xlink:href="#ArialMT-48"/>
      </g>
     </g>
    </g>
    <g id="ytick_3">
     <g id="line2d_19">
      <path clip-path="url(#ped31a599c8)" d="M 49.354531 133.547304 
L 319.584318 133.547304 
" style="fill:none;stroke:#b0b0b0;stroke-linecap:square;stroke-opacity:0.25;stroke-width:0.8;"/>
     </g>
     <g id="line2d_20">
      <g>
       <use style="stroke:#000000;stroke-width:0.8;" x="49.354531" xlink:href="#me0250be967" y="133.547304"/>
      </g>
     </g>
     <g id="text_11">
      <!-- 60 -->
      <g transform="translate(30.120469 137.484101)scale(0.11 -0.11)">
       <use xlink:href="#ArialMT-54"/>
       <use x="55.615234" xlink:href="#ArialMT-48"/>
      </g>
     </g>
    </g>
    <g id="ytick_4">
     <g id="line2d_21">
      <path clip-path="url(#ped31a599c8)" d="M 49.354531 104.129047 
L 319.584318 104.129047 
" style="fill:none;stroke:#b0b0b0;stroke-linecap:square;stroke-opacity:0.25;stroke-width:0.8;"/>
     </g>
     <g id="line2d_22">
      <g>
       <use style="stroke:#000000;stroke-width:0.8;" x="49.354531" xlink:href="#me0250be967" y="104.129047"/>
      </g>
     </g>
     <g id="text_12">
      <!-- 80 -->
      <g transform="translate(30.120469 108.065844)scale(0.11 -0.11)">
       <use xlink:href="#ArialMT-56"/>
       <use x="55.615234" xlink:href="#ArialMT-48"/>
      </g>
     </g>
    </g>
    <g id="ytick_5">
     <g id="line2d_23">
      <path clip-path="url(#ped31a599c8)" d="M 49.354531 74.71079 
L 319.584318 74.71079 
" style="fill:none;stroke:#b0b0b0;stroke-linecap:square;stroke-opacity:0.25;stroke-width:0.8;"/>
     </g>
     <g id="line2d_24">
      <g>
       <use style="stroke:#000000;stroke-width:0.8;" x="49.354531" xlink:href="#me0250be967" y="74.71079"/>
      </g>
     </g>
     <g id="text_13">
      <!-- 100 -->
      <g transform="translate(24.003438 78.647587)scale(0.11 -0.11)">
       <use xlink:href="#ArialMT-49"/>
       <use x="55.615234" xlink:href="#ArialMT-48"/>
       <use x="111.230469" xlink:href="#ArialMT-48"/>
      </g>
     </g>
    </g>
    <g id="ytick_6">
     <g id="line2d_25">
      <path clip-path="url(#ped31a599c8)" d="M 49.354531 45.292534 
L 319.584318 45.292534 
" style="fill:none;stroke:#b0b0b0;stroke-linecap:square;stroke-opacity:0.25;stroke-width:0.8;"/>
     </g>
     <g id="line2d_26">
      <g>
       <use style="stroke:#000000;stroke-width:0.8;" x="49.354531" xlink:href="#me0250be967" y="45.292534"/>
      </g>
     </g>
     <g id="text_14">
      <!-- 120 -->
      <g transform="translate(24.003438 49.229331)scale(0.11 -0.11)">
       <use xlink:href="#ArialMT-49"/>
       <use x="55.615234" xlink:href="#ArialMT-50"/>
       <use x="111.230469" xlink:href="#ArialMT-48"/>
      </g>
     </g>
    </g>
    <g id="ytick_7">
     <g id="line2d_27">
      <path clip-path="url(#ped31a599c8)" d="M 49.354531 15.874277 
L 319.584318 15.874277 
" style="fill:none;stroke:#b0b0b0;stroke-linecap:square;stroke-opacity:0.25;stroke-width:0.8;"/>
     </g>
     <g id="line2d_28">
      <g>
       <use style="stroke:#000000;stroke-width:0.8;" x="49.354531" xlink:href="#me0250be967" y="15.874277"/>
      </g>
     </g>
     <g id="text_15">
      <!-- 140 -->
      <g transform="translate(24.003438 19.811074)scale(0.11 -0.11)">
       <use xlink:href="#ArialMT-49"/>
       <use x="55.615234" xlink:href="#ArialMT-52"/>
       <use x="111.230469" xlink:href="#ArialMT-48"/>
      </g>
     </g>
    </g>
    <g id="text_16">
     <!-- $N_{\mathrm{ESS}}$ -->
     <g transform="translate(17.220938 125.938)rotate(-90)scale(0.14 -0.14)">
      <defs>
       <path d="M 16.890625 72.90625 
L 30.171875 72.90625 
L 50.296875 10.40625 
L 62.5 72.90625 
L 72.125 72.90625 
L 57.90625 0 
L 44.578125 0 
L 24.515625 62.890625 
L 12.3125 0 
L 2.6875 0 
z
" id="DejaVuSans-Oblique-78"/>
       <path d="M 9.8125 72.90625 
L 55.90625 72.90625 
L 55.90625 64.59375 
L 19.671875 64.59375 
L 19.671875 43.015625 
L 54.390625 43.015625 
L 54.390625 34.71875 
L 19.671875 34.71875 
L 19.671875 8.296875 
L 56.78125 8.296875 
L 56.78125 0 
L 9.8125 0 
z
" id="DejaVuSans-69"/>
       <path d="M 53.515625 70.515625 
L 53.515625 60.890625 
Q 47.90625 63.578125 42.921875 64.890625 
Q 37.9375 66.21875 33.296875 66.21875 
Q 25.25 66.21875 20.875 63.09375 
Q 16.5 59.96875 16.5 54.203125 
Q 16.5 49.359375 19.40625 46.890625 
Q 22.3125 44.4375 30.421875 42.921875 
L 36.375 41.703125 
Q 47.40625 39.59375 52.65625 34.296875 
Q 57.90625 29 57.90625 20.125 
Q 57.90625 9.515625 50.796875 4.046875 
Q 43.703125 -1.421875 29.984375 -1.421875 
Q 24.8125 -1.421875 18.96875 -0.25 
Q 13.140625 0.921875 6.890625 3.21875 
L 6.890625 13.375 
Q 12.890625 10.015625 18.65625 8.296875 
Q 24.421875 6.59375 29.984375 6.59375 
Q 38.421875 6.59375 43.015625 9.90625 
Q 47.609375 13.234375 47.609375 19.390625 
Q 47.609375 24.75 44.3125 27.78125 
Q 41.015625 30.8125 33.5 32.328125 
L 27.484375 33.5 
Q 16.453125 35.6875 11.515625 40.375 
Q 6.59375 45.0625 6.59375 53.421875 
Q 6.59375 63.09375 13.40625 68.65625 
Q 20.21875 74.21875 32.171875 74.21875 
Q 37.3125 74.21875 42.625 73.28125 
Q 47.953125 72.359375 53.515625 70.515625 
z
" id="DejaVuSans-83"/>
      </defs>
      <use transform="translate(0 0.09375)" xlink:href="#DejaVuSans-Oblique-78"/>
      <use transform="translate(74.804688 -16.3125)scale(0.7)" xlink:href="#DejaVuSans-69"/>
      <use transform="translate(119.033203 -16.3125)scale(0.7)" xlink:href="#DejaVuSans-83"/>
      <use transform="translate(163.466797 -16.3125)scale(0.7)" xlink:href="#DejaVuSans-83"/>
     </g>
    </g>
   </g>
   <g id="line2d_29">
    <path clip-path="url(#ped31a599c8)" d="M 61.637703 16.651636 
L 79.185092 116.438709 
L 96.732481 150.410934 
L 131.827259 177.87129 
L 166.922036 189.730946 
L 184.469425 193.451687 
L 202.016814 196.35169 
L 219.564202 198.676253 
L 254.65898 202.172575 
L 307.301146 205.684364 
" style="fill:none;stroke:#2e8b57;stroke-linecap:square;stroke-width:2.2;"/>
   </g>
   <g id="patch_3">
    <path d="M 49.354531 215.136 
L 49.354531 7.2 
" style="fill:none;stroke:#000000;stroke-linecap:square;stroke-linejoin:miter;stroke-width:0.8;"/>
   </g>
   <g id="patch_4">
    <path d="M 319.584318 215.136 
L 319.584318 7.2 
" style="fill:none;stroke:#000000;stroke-linecap:square;stroke-linejoin:miter;stroke-width:0.8;"/>
   </g>
   <g id="patch_5">
    <path d="M 49.354531 215.136 
L 319.584318 215.136 
" style="fill:none;stroke:#000000;stroke-linecap:square;stroke-linejoin:miter;stroke-width:0.8;"/>
   </g>
   <g id="patch_6">
    <path d="M 49.354531 7.2 
L 319.584318 7.2 
" style="fill:none;stroke:#000000;stroke-linecap:square;stroke-linejoin:miter;stroke-width:0.8;"/>
   </g>
  </g>
  <g id="axes_2">
   <g id="patch_7">
    <path d="M 414.164744 215.136 
L 684.394531 215.136 
L 684.394531 7.2 
L 414.164744 7.2 
z
" style="fill:#ffffff;"/>
   </g>
   <g id="matplotlib.axis_3">
    <g id="xtick_8">
     <g id="line2d_30">
      <path clip-path="url(#paf15a8678b)" d="M 443.995305 215.136 
L 443.995305 7.2 
" style="fill:none;stroke:#808080;stroke-linecap:square;stroke-opacity:0.25;stroke-width:0.8;"/>
     </g>
     <g id="line2d_31">
      <g>
       <use style="stroke:#000000;stroke-width:0.8;" x="443.995305" xlink:href="#m787b133848" y="215.136"/>
      </g>
     </g>
     <g id="text_17">
      <!-- 0.02 -->
      <g transform="translate(433.291789 230.009594)scale(0.11 -0.11)">
       <use xlink:href="#ArialMT-48"/>
       <use x="55.615234" xlink:href="#ArialMT-46"/>
       <use x="83.398438" xlink:href="#ArialMT-48"/>
       <use x="139.013672" xlink:href="#ArialMT-50"/>
      </g>
     </g>
    </g>
    <g id="xtick_9">
     <g id="line2d_32">
      <path clip-path="url(#paf15a8678b)" d="M 479.090083 215.136 
L 479.090083 7.2 
" style="fill:none;stroke:#808080;stroke-linecap:square;stroke-opacity:0.25;stroke-width:0.8;"/>
     </g>
     <g id="line2d_33">
      <g>
       <use style="stroke:#000000;stroke-width:0.8;" x="479.090083" xlink:href="#m787b133848" y="215.136"/>
      </g>
     </g>
     <g id="text_18">
      <!-- 0.04 -->
      <g transform="translate(468.386567 230.009594)scale(0.11 -0.11)">
       <use xlink:href="#ArialMT-48"/>
       <use x="55.615234" xlink:href="#ArialMT-46"/>
       <use x="83.398438" xlink:href="#ArialMT-48"/>
       <use x="139.013672" xlink:href="#ArialMT-52"/>
      </g>
     </g>
    </g>
    <g id="xtick_10">
     <g id="line2d_34">
      <path clip-path="url(#paf15a8678b)" d="M 514.18486 215.136 
L 514.18486 7.2 
" style="fill:none;stroke:#808080;stroke-linecap:square;stroke-opacity:0.25;stroke-width:0.8;"/>
     </g>
     <g id="line2d_35">
      <g>
       <use style="stroke:#000000;stroke-width:0.8;" x="514.18486" xlink:href="#m787b133848" y="215.136"/>
      </g>
     </g>
     <g id="text_19">
      <!-- 0.06 -->
      <g transform="translate(503.481344 230.009594)scale(0.11 -0.11)">
       <use xlink:href="#ArialMT-48"/>
       <use x="55.615234" xlink:href="#ArialMT-46"/>
       <use x="83.398438" xlink:href="#ArialMT-48"/>
       <use x="139.013672" xlink:href="#ArialMT-54"/>
      </g>
     </g>
    </g>
    <g id="xtick_11">
     <g id="line2d_36">
      <path clip-path="url(#paf15a8678b)" d="M 549.279638 215.136 
L 549.279638 7.2 
" style="fill:none;stroke:#808080;stroke-linecap:square;stroke-opacity:0.25;stroke-width:0.8;"/>
     </g>
     <g id="line2d_37">
      <g>
       <use style="stroke:#000000;stroke-width:0.8;" x="549.279638" xlink:href="#m787b133848" y="215.136"/>
      </g>
     </g>
     <g id="text_20">
      <!-- 0.08 -->
      <g transform="translate(538.576122 230.009594)scale(0.11 -0.11)">
       <use xlink:href="#ArialMT-48"/>
       <use x="55.615234" xlink:href="#ArialMT-46"/>
       <use x="83.398438" xlink:href="#ArialMT-48"/>
       <use x="139.013672" xlink:href="#ArialMT-56"/>
      </g>
     </g>
    </g>
    <g id="xtick_12">
     <g id="line2d_38">
      <path clip-path="url(#paf15a8678b)" d="M 584.374415 215.136 
L 584.374415 7.2 
" style="fill:none;stroke:#808080;stroke-linecap:square;stroke-opacity:0.25;stroke-width:0.8;"/>
     </g>
     <g id="line2d_39">
      <g>
       <use style="stroke:#000000;stroke-width:0.8;" x="584.374415" xlink:href="#m787b133848" y="215.136"/>
      </g>
     </g>
     <g id="text_21">
      <!-- 0.10 -->
      <g transform="translate(573.6709 230.009594)scale(0.11 -0.11)">
       <use xlink:href="#ArialMT-48"/>
       <use x="55.615234" xlink:href="#ArialMT-46"/>
       <use x="83.398438" xlink:href="#ArialMT-49"/>
       <use x="139.013672" xlink:href="#ArialMT-48"/>
      </g>
     </g>
    </g>
    <g id="xtick_13">
     <g id="line2d_40">
      <path clip-path="url(#paf15a8678b)" d="M 619.469193 215.136 
L 619.469193 7.2 
" style="fill:none;stroke:#808080;stroke-linecap:square;stroke-opacity:0.25;stroke-width:0.8;"/>
     </g>
     <g id="line2d_41">
      <g>
       <use style="stroke:#000000;stroke-width:0.8;" x="619.469193" xlink:href="#m787b133848" y="215.136"/>
      </g>
     </g>
     <g id="text_22">
      <!-- 0.12 -->
      <g transform="translate(608.765677 230.009594)scale(0.11 -0.11)">
       <use xlink:href="#ArialMT-48"/>
       <use x="55.615234" xlink:href="#ArialMT-46"/>
       <use x="83.398438" xlink:href="#ArialMT-49"/>
       <use x="139.013672" xlink:href="#ArialMT-50"/>
      </g>
     </g>
    </g>
    <g id="xtick_14">
     <g id="line2d_42">
      <path clip-path="url(#paf15a8678b)" d="M 654.56397 215.136 
L 654.56397 7.2 
" style="fill:none;stroke:#808080;stroke-linecap:square;stroke-opacity:0.25;stroke-width:0.8;"/>
     </g>
     <g id="line2d_43">
      <g>
       <use style="stroke:#000000;stroke-width:0.8;" x="654.56397" xlink:href="#m787b133848" y="215.136"/>
      </g>
     </g>
     <g id="text_23">
      <!-- 0.14 -->
      <g transform="translate(643.860455 230.009594)scale(0.11 -0.11)">
       <use xlink:href="#ArialMT-48"/>
       <use x="55.615234" xlink:href="#ArialMT-46"/>
       <use x="83.398438" xlink:href="#ArialMT-49"/>
       <use x="139.013672" xlink:href="#ArialMT-52"/>
      </g>
     </g>
    </g>
    <g id="text_24">
     <!-- h -->
     <g transform="translate(545.943075 244.785219)scale(0.12 -0.12)">
      <use xlink:href="#ArialMT-104"/>
     </g>
    </g>
   </g>
   <g id="matplotlib.axis_4">
    <g id="ytick_8">
     <g id="line2d_44">
      <path clip-path="url(#paf15a8678b)" d="M 414.164744 187.478937 
L 684.394531 187.478937 
" style="fill:none;stroke:#808080;stroke-linecap:square;stroke-opacity:0.25;stroke-width:0.8;"/>
     </g>
     <g id="line2d_45">
      <defs>
       <path d="M 0 0 
L -3.5 0 
" id="m48a9948829" style="stroke:#0000ff;stroke-width:0.8;"/>
      </defs>
      <g>
       <use style="fill:#0000ff;stroke:#0000ff;stroke-width:0.8;" x="414.164744" xlink:href="#m48a9948829" y="187.478937"/>
      </g>
     </g>
     <g id="text_25">
      <!-- 50 -->
      <g style="fill:#0000ff;" transform="translate(394.930682 191.415734)scale(0.11 -0.11)">
       <defs>
        <path d="M 4.15625 18.75 
L 13.375 19.53125 
Q 14.40625 12.796875 18.140625 9.390625 
Q 21.875 6 27.15625 6 
Q 33.5 6 37.890625 10.78125 
Q 42.28125 15.578125 42.28125 23.484375 
Q 42.28125 31 38.0625 35.34375 
Q 33.84375 39.703125 27 39.703125 
Q 22.75 39.703125 19.328125 37.765625 
Q 15.921875 35.84375 13.96875 32.765625 
L 5.71875 33.84375 
L 12.640625 70.609375 
L 48.25 70.609375 
L 48.25 62.203125 
L 19.671875 62.203125 
L 15.828125 42.96875 
Q 22.265625 47.46875 29.34375 47.46875 
Q 38.71875 47.46875 45.15625 40.96875 
Q 51.609375 34.46875 51.609375 24.265625 
Q 51.609375 14.546875 45.953125 7.46875 
Q 39.0625 -1.21875 27.15625 -1.21875 
Q 17.390625 -1.21875 11.203125 4.25 
Q 5.03125 9.71875 4.15625 18.75 
z
" id="ArialMT-53"/>
       </defs>
       <use xlink:href="#ArialMT-53"/>
       <use x="55.615234" xlink:href="#ArialMT-48"/>
      </g>
     </g>
    </g>
    <g id="ytick_9">
     <g id="line2d_46">
      <path clip-path="url(#paf15a8678b)" d="M 414.164744 150.074202 
L 684.394531 150.074202 
" style="fill:none;stroke:#808080;stroke-linecap:square;stroke-opacity:0.25;stroke-width:0.8;"/>
     </g>
     <g id="line2d_47">
      <g>
       <use style="fill:#0000ff;stroke:#0000ff;stroke-width:0.8;" x="414.164744" xlink:href="#m48a9948829" y="150.074202"/>
      </g>
     </g>
     <g id="text_26">
      <!-- 100 -->
      <g style="fill:#0000ff;" transform="translate(388.81365 154.010999)scale(0.11 -0.11)">
       <use xlink:href="#ArialMT-49"/>
       <use x="55.615234" xlink:href="#ArialMT-48"/>
       <use x="111.230469" xlink:href="#ArialMT-48"/>
      </g>
     </g>
    </g>
    <g id="ytick_10">
     <g id="line2d_48">
      <path clip-path="url(#paf15a8678b)" d="M 414.164744 112.669467 
L 684.394531 112.669467 
" style="fill:none;stroke:#808080;stroke-linecap:square;stroke-opacity:0.25;stroke-width:0.8;"/>
     </g>
     <g id="line2d_49">
      <g>
       <use style="fill:#0000ff;stroke:#0000ff;stroke-width:0.8;" x="414.164744" xlink:href="#m48a9948829" y="112.669467"/>
      </g>
     </g>
     <g id="text_27">
      <!-- 150 -->
      <g style="fill:#0000ff;" transform="translate(388.81365 116.606264)scale(0.11 -0.11)">
       <use xlink:href="#ArialMT-49"/>
       <use x="55.615234" xlink:href="#ArialMT-53"/>
       <use x="111.230469" xlink:href="#ArialMT-48"/>
      </g>
     </g>
    </g>
    <g id="ytick_11">
     <g id="line2d_50">
      <path clip-path="url(#paf15a8678b)" d="M 414.164744 75.264733 
L 684.394531 75.264733 
" style="fill:none;stroke:#808080;stroke-linecap:square;stroke-opacity:0.25;stroke-width:0.8;"/>
     </g>
     <g id="line2d_51">
      <g>
       <use style="fill:#0000ff;stroke:#0000ff;stroke-width:0.8;" x="414.164744" xlink:href="#m48a9948829" y="75.264733"/>
      </g>
     </g>
     <g id="text_28">
      <!-- 200 -->
      <g style="fill:#0000ff;" transform="translate(388.81365 79.20153)scale(0.11 -0.11)">
       <use xlink:href="#ArialMT-50"/>
       <use x="55.615234" xlink:href="#ArialMT-48"/>
       <use x="111.230469" xlink:href="#ArialMT-48"/>
      </g>
     </g>
    </g>
    <g id="ytick_12">
     <g id="line2d_52">
      <path clip-path="url(#paf15a8678b)" d="M 414.164744 37.859998 
L 684.394531 37.859998 
" style="fill:none;stroke:#808080;stroke-linecap:square;stroke-opacity:0.25;stroke-width:0.8;"/>
     </g>
     <g id="line2d_53">
      <g>
       <use style="fill:#0000ff;stroke:#0000ff;stroke-width:0.8;" x="414.164744" xlink:href="#m48a9948829" y="37.859998"/>
      </g>
     </g>
     <g id="text_29">
      <!-- 250 -->
      <g style="fill:#0000ff;" transform="translate(388.81365 41.796795)scale(0.11 -0.11)">
       <use xlink:href="#ArialMT-50"/>
       <use x="55.615234" xlink:href="#ArialMT-53"/>
       <use x="111.230469" xlink:href="#ArialMT-48"/>
      </g>
     </g>
    </g>
    <g id="text_30">
     <!-- $u_{\mathrm{ESS}}$ -->
     <g style="fill:#0000ff;" transform="translate(382.03115 125.168)rotate(-90)scale(0.14 -0.14)">
      <defs>
       <path d="M 6.6875 21.6875 
L 13.09375 54.6875 
L 22.125 54.6875 
L 15.71875 22.015625 
Q 15.234375 19.625 15.015625 17.921875 
Q 14.796875 16.21875 14.796875 15.09375 
Q 14.796875 10.9375 17.328125 8.65625 
Q 19.875 6.390625 24.515625 6.390625 
Q 31.734375 6.390625 37 11.265625 
Q 42.28125 16.15625 43.890625 24.421875 
L 49.90625 54.6875 
L 58.890625 54.6875 
L 48.296875 0 
L 39.3125 0 
L 41.109375 8.59375 
Q 37.3125 3.8125 32.0625 1.1875 
Q 26.8125 -1.421875 20.90625 -1.421875 
Q 13.71875 -1.421875 9.71875 2.515625 
Q 5.71875 6.453125 5.71875 13.484375 
Q 5.71875 14.9375 5.953125 17.140625 
Q 6.203125 19.34375 6.6875 21.6875 
z
" id="DejaVuSans-Oblique-117"/>
      </defs>
      <use transform="translate(0 0.3125)" xlink:href="#DejaVuSans-Oblique-117"/>
      <use transform="translate(63.378906 -16.09375)scale(0.7)" xlink:href="#DejaVuSans-69"/>
      <use transform="translate(107.607422 -16.09375)scale(0.7)" xlink:href="#DejaVuSans-83"/>
      <use transform="translate(152.041016 -16.09375)scale(0.7)" xlink:href="#DejaVuSans-83"/>
     </g>
    </g>
   </g>
   <g id="line2d_54">
    <path clip-path="url(#paf15a8678b)" d="M 426.447916 205.684364 
L 443.995305 188.147242 
L 461.542694 171.384836 
L 496.637471 139.988933 
L 531.732249 111.16331 
L 549.279638 97.626801 
L 566.827026 84.633399 
L 584.374415 72.155238 
L 619.469193 48.6433 
L 672.111359 16.651636 
" style="fill:none;stroke:#0000ff;stroke-linecap:square;stroke-width:2.2;"/>
   </g>
   <g id="patch_8">
    <path d="M 414.164744 215.136 
L 414.164744 7.2 
" style="fill:none;stroke:#0000ff;stroke-linecap:square;stroke-linejoin:miter;stroke-width:0.8;"/>
   </g>
   <g id="patch_9">
    <path d="M 684.394531 215.136 
L 684.394531 7.2 
" style="fill:none;stroke:#000000;stroke-linecap:square;stroke-linejoin:miter;stroke-width:0.8;"/>
   </g>
   <g id="patch_10">
    <path d="M 414.164744 215.136 
L 684.394531 215.136 
" style="fill:none;stroke:#000000;stroke-linecap:square;stroke-linejoin:miter;stroke-width:0.8;"/>
   </g>
   <g id="patch_11">
    <path d="M 414.164744 7.2 
L 684.394531 7.2 
" style="fill:none;stroke:#000000;stroke-linecap:square;stroke-linejoin:miter;stroke-width:0.8;"/>
   </g>
   <g id="legend_1">
    <g id="line2d_55">
     <path d="M 621.694531 21.123594 
L 643.694531 21.123594 
" style="fill:none;stroke:#0000ff;stroke-linecap:square;stroke-width:2.2;"/>
    </g>
    <g id="line2d_56"/>
    <g id="text_31">
     <!-- $u_{\mathrm{ESS}}$ -->
     <g transform="translate(652.494531 24.973594)scale(0.11 -0.11)">
      <use transform="translate(0 0.3125)" xlink:href="#DejaVuSans-Oblique-117"/>
      <use transform="translate(63.378906 -16.09375)scale(0.7)" xlink:href="#DejaVuSans-69"/>
      <use transform="translate(107.607422 -16.09375)scale(0.7)" xlink:href="#DejaVuSans-83"/>
      <use transform="translate(152.041016 -16.09375)scale(0.7)" xlink:href="#DejaVuSans-83"/>
     </g>
    </g>
    <g id="line2d_57">
     <path d="M 621.694531 36.683437 
L 643.694531 36.683437 
" style="fill:none;stroke:#ff00ff;stroke-linecap:square;stroke-width:2.2;"/>
    </g>
    <g id="line2d_58"/>
    <g id="text_32">
     <!-- $y_{\mathrm{ESS}}$ -->
     <g transform="translate(652.494531 40.533437)scale(0.11 -0.11)">
      <defs>
       <path d="M 24.8125 -5.078125 
Q 18.5625 -15.578125 14.625 -18.1875 
Q 10.6875 -20.796875 4.59375 -20.796875 
L -2.484375 -20.796875 
L -0.984375 -13.28125 
L 4.203125 -13.28125 
Q 7.953125 -13.28125 10.59375 -11.234375 
Q 13.234375 -9.1875 16.5 -3.21875 
L 19.28125 2 
L 7.171875 54.6875 
L 16.703125 54.6875 
L 25.78125 12.796875 
L 50.875 54.6875 
L 60.296875 54.6875 
z
" id="DejaVuSans-Oblique-121"/>
      </defs>
      <use transform="translate(0 0.3125)" xlink:href="#DejaVuSans-Oblique-121"/>
      <use transform="translate(59.179688 -16.09375)scale(0.7)" xlink:href="#DejaVuSans-69"/>
      <use transform="translate(103.408203 -16.09375)scale(0.7)" xlink:href="#DejaVuSans-83"/>
      <use transform="translate(147.841797 -16.09375)scale(0.7)" xlink:href="#DejaVuSans-83"/>
     </g>
    </g>
   </g>
  </g>
  <g id="axes_3">
   <g id="matplotlib.axis_5">
    <g id="ytick_13">
     <g id="line2d_59">
      <defs>
       <path d="M 0 0 
L 3.5 0 
" id="m0f2c005b83" style="stroke:#ff00ff;stroke-width:0.8;"/>
      </defs>
      <g>
       <use style="fill:#ff00ff;stroke:#ff00ff;stroke-width:0.8;" x="684.394531" xlink:href="#m0f2c005b83" y="191.321898"/>
      </g>
     </g>
     <g id="text_33">
      <!-- 22.5 -->
      <g style="fill:#ff00ff;" transform="translate(691.394531 195.258695)scale(0.11 -0.11)">
       <use xlink:href="#ArialMT-50"/>
       <use x="55.615234" xlink:href="#ArialMT-50"/>
       <use x="111.230469" xlink:href="#ArialMT-46"/>
       <use x="139.013672" xlink:href="#ArialMT-53"/>
      </g>
     </g>
    </g>
    <g id="ytick_14">
     <g id="line2d_60">
      <g>
       <use style="fill:#ff00ff;stroke:#ff00ff;stroke-width:0.8;" x="684.394531" xlink:href="#m0f2c005b83" y="162.545477"/>
      </g>
     </g>
     <g id="text_34">
      <!-- 23.0 -->
      <g style="fill:#ff00ff;" transform="translate(691.394531 166.482274)scale(0.11 -0.11)">
       <defs>
        <path d="M 4.203125 18.890625 
L 12.984375 20.0625 
Q 14.5 12.59375 18.140625 9.296875 
Q 21.78125 6 27 6 
Q 33.203125 6 37.46875 10.296875 
Q 41.75 14.59375 41.75 20.953125 
Q 41.75 27 37.796875 30.921875 
Q 33.84375 34.859375 27.734375 34.859375 
Q 25.25 34.859375 21.53125 33.890625 
L 22.515625 41.609375 
Q 23.390625 41.5 23.921875 41.5 
Q 29.546875 41.5 34.03125 44.421875 
Q 38.53125 47.359375 38.53125 53.46875 
Q 38.53125 58.296875 35.25 61.46875 
Q 31.984375 64.65625 26.8125 64.65625 
Q 21.6875 64.65625 18.265625 61.421875 
Q 14.84375 58.203125 13.875 51.765625 
L 5.078125 53.328125 
Q 6.6875 62.15625 12.390625 67.015625 
Q 18.109375 71.875 26.609375 71.875 
Q 32.46875 71.875 37.390625 69.359375 
Q 42.328125 66.84375 44.9375 62.5 
Q 47.5625 58.15625 47.5625 53.265625 
Q 47.5625 48.640625 45.0625 44.828125 
Q 42.578125 41.015625 37.703125 38.765625 
Q 44.046875 37.3125 47.5625 32.6875 
Q 51.078125 28.078125 51.078125 21.140625 
Q 51.078125 11.765625 44.234375 5.25 
Q 37.40625 -1.265625 26.953125 -1.265625 
Q 17.53125 -1.265625 11.296875 4.34375 
Q 5.078125 9.96875 4.203125 18.890625 
z
" id="ArialMT-51"/>
       </defs>
       <use xlink:href="#ArialMT-50"/>
       <use x="55.615234" xlink:href="#ArialMT-51"/>
       <use x="111.230469" xlink:href="#ArialMT-46"/>
       <use x="139.013672" xlink:href="#ArialMT-48"/>
      </g>
     </g>
    </g>
    <g id="ytick_15">
     <g id="line2d_61">
      <g>
       <use style="fill:#ff00ff;stroke:#ff00ff;stroke-width:0.8;" x="684.394531" xlink:href="#m0f2c005b83" y="133.769057"/>
      </g>
     </g>
     <g id="text_35">
      <!-- 23.5 -->
      <g style="fill:#ff00ff;" transform="translate(691.394531 137.705854)scale(0.11 -0.11)">
       <use xlink:href="#ArialMT-50"/>
       <use x="55.615234" xlink:href="#ArialMT-51"/>
       <use x="111.230469" xlink:href="#ArialMT-46"/>
       <use x="139.013672" xlink:href="#ArialMT-53"/>
      </g>
     </g>
    </g>
    <g id="ytick_16">
     <g id="line2d_62">
      <g>
       <use style="fill:#ff00ff;stroke:#ff00ff;stroke-width:0.8;" x="684.394531" xlink:href="#m0f2c005b83" y="104.992636"/>
      </g>
     </g>
     <g id="text_36">
      <!-- 24.0 -->
      <g style="fill:#ff00ff;" transform="translate(691.394531 108.929433)scale(0.11 -0.11)">
       <use xlink:href="#ArialMT-50"/>
       <use x="55.615234" xlink:href="#ArialMT-52"/>
       <use x="111.230469" xlink:href="#ArialMT-46"/>
       <use x="139.013672" xlink:href="#ArialMT-48"/>
      </g>
     </g>
    </g>
    <g id="ytick_17">
     <g id="line2d_63">
      <g>
       <use style="fill:#ff00ff;stroke:#ff00ff;stroke-width:0.8;" x="684.394531" xlink:href="#m0f2c005b83" y="76.216216"/>
      </g>
     </g>
     <g id="text_37">
      <!-- 24.5 -->
      <g style="fill:#ff00ff;" transform="translate(691.394531 80.153013)scale(0.11 -0.11)">
       <use xlink:href="#ArialMT-50"/>
       <use x="55.615234" xlink:href="#ArialMT-52"/>
       <use x="111.230469" xlink:href="#ArialMT-46"/>
       <use x="139.013672" xlink:href="#ArialMT-53"/>
      </g>
     </g>
    </g>
    <g id="ytick_18">
     <g id="line2d_64">
      <g>
       <use style="fill:#ff00ff;stroke:#ff00ff;stroke-width:0.8;" x="684.394531" xlink:href="#m0f2c005b83" y="47.439795"/>
      </g>
     </g>
     <g id="text_38">
      <!-- 25.0 -->
      <g style="fill:#ff00ff;" transform="translate(691.394531 51.376592)scale(0.11 -0.11)">
       <use xlink:href="#ArialMT-50"/>
       <use x="55.615234" xlink:href="#ArialMT-53"/>
       <use x="111.230469" xlink:href="#ArialMT-46"/>
       <use x="139.013672" xlink:href="#ArialMT-48"/>
      </g>
     </g>
    </g>
    <g id="ytick_19">
     <g id="line2d_65">
      <g>
       <use style="fill:#ff00ff;stroke:#ff00ff;stroke-width:0.8;" x="684.394531" xlink:href="#m0f2c005b83" y="18.663375"/>
      </g>
     </g>
     <g id="text_39">
      <!-- 25.5 -->
      <g style="fill:#ff00ff;" transform="translate(691.394531 22.600172)scale(0.11 -0.11)">
       <use xlink:href="#ArialMT-50"/>
       <use x="55.615234" xlink:href="#ArialMT-53"/>
       <use x="111.230469" xlink:href="#ArialMT-46"/>
       <use x="139.013672" xlink:href="#ArialMT-53"/>
      </g>
     </g>
    </g>
    <g id="text_40">
     <!-- $y_{\mathrm{ESS}}$ -->
     <g style="fill:#ff00ff;" transform="translate(726.665 124.888)rotate(-90)scale(0.14 -0.14)">
      <use transform="translate(0 0.3125)" xlink:href="#DejaVuSans-Oblique-121"/>
      <use transform="translate(59.179688 -16.09375)scale(0.7)" xlink:href="#DejaVuSans-69"/>
      <use transform="translate(103.408203 -16.09375)scale(0.7)" xlink:href="#DejaVuSans-83"/>
      <use transform="translate(147.841797 -16.09375)scale(0.7)" xlink:href="#DejaVuSans-83"/>
     </g>
    </g>
   </g>
   <g id="line2d_66">
    <path clip-path="url(#paf15a8678b)" d="M 426.447916 16.651636 
L 443.995305 47.521394 
L 461.542694 66.196016 
L 496.637471 95.279954 
L 531.732249 120.388083 
L 549.279638 132.147157 
L 566.827026 143.511785 
L 584.374415 154.538261 
L 619.469193 175.723802 
L 672.111359 205.684364 
" style="fill:none;stroke:#ff00ff;stroke-linecap:square;stroke-width:2.2;"/>
   </g>
   <g id="patch_12">
    <path d="M 414.164744 215.136 
L 414.164744 7.2 
" style="fill:none;stroke:#000000;stroke-linecap:square;stroke-linejoin:miter;stroke-width:0.8;"/>
   </g>
   <g id="patch_13">
    <path d="M 684.394531 215.136 
L 684.394531 7.2 
" style="fill:none;stroke:#ff00ff;stroke-linecap:square;stroke-linejoin:miter;stroke-width:0.8;"/>
   </g>
   <g id="patch_14">
    <path d="M 414.164744 215.136 
L 684.394531 215.136 
" style="fill:none;stroke:#000000;stroke-linecap:square;stroke-linejoin:miter;stroke-width:0.8;"/>
   </g>
   <g id="patch_15">
    <path d="M 414.164744 7.2 
L 684.394531 7.2 
" style="fill:none;stroke:#000000;stroke-linecap:square;stroke-linejoin:miter;stroke-width:0.8;"/>
   </g>
  </g>
 </g>
 <defs>
  <clipPath id="ped31a599c8">
   <rect height="207.936" width="270.229787" x="49.354531" y="7.2"/>
  </clipPath>
  <clipPath id="paf15a8678b">
   <rect height="207.936" width="270.229787" x="414.164744" y="7.2"/>
  </clipPath>
 </defs>
</svg>
