<?xml version="1.0" encoding="utf-8" standalone="no"?>
<!DOCTYPE svg PUBLIC "-//W3C//DTD SVG 1.1//EN"
  "http://www.w3.org/Graphics/SVG/1.1/DTD/svg11.dtd">
<!-- Created with matplotlib (https://matplotlib.org/) -->
<svg height="273.6pt" version="1.1" viewBox="0 0 936 273.6" width="936pt" xmlns="http://www.w3.org/2000/svg" xmlns:xlink="http://www.w3.org/1999/xlink">
 <metadata>
  <rdf:RDF xmlns:cc="http://creativecommons.org/ns#" xmlns:dc="http://purl.org/dc/elements/1.1/" xmlns:rdf="http://www.w3.org/1999/02/22-rdf-syntax-ns#">
   <cc:Work>
    <dc:type rdf:resource="http://purl.org/dc/dcmitype/StillImage"/>
    <dc:date>2026-03-30T06:26:33.606809</dc:date>
    <dc:format>image/svg+xml</dc:format>
    <dc:creator>
     <cc:Agent>
      <dc:title>Matplotlib v3.3.4, https://matplotlib.org/</dc:title>
     </cc:Agent>
    </dc:creator>
   </cc:Work>
  </rdf:RDF>
 </metadata>
 <defs>
  <style type="text/css">*{stroke-linecap:butt;stroke-linejoin:round;}</style>
 </defs>
 <g id="figure_1">
  <g id="patch_1">
   <path d="M 0 273.6 
L 936 273.6 
L 936 0 
L 0 0 
z
" style="fill:none;"/>
  </g>
  <g id="axes_1">
   <g id="patch_2">
    <path d="M 47.654545 227.581818 
L 303.927273 227.581818 
L 303.927273 50.469818 
L 47.654545 50.469818 
z
" style="fill:#ffffff;"/>
   </g>
   <g id="matplotlib.axis_1">
    <g id="xtick_1">
     <g id="line2d_1">
      <path clip-path="url(#pa4a15439cf)" d="M 59.303306 227.581818 
L 59.303306 50.469818 
" style="fill:none;stroke:#b0b0b0;stroke-linecap:square;stroke-opacity:0.25;stroke-width:0.8;"/>
     </g>
     <g id="line2d_2">
      <defs>
       <path d="M 0 0 
L 0 3.5 
" id="m15dc3e9080" style="stroke:#000000;stroke-width:0.8;"/>
      </defs>
      <g>
       <use style="stroke:#000000;stroke-width:0.8;" x="59.303306" xlink:href="#m15dc3e9080" y="227.581818"/>
      </g>
     </g>
     <g id="text_1">
      <!-- 0 -->
      <g transform="translate(55.966743 243.171193)scale(0.12 -0.12)">
       <defs>
        <path d="M 4.15625 35.296875 
Q 4.15625 48 6.765625 55.734375 
Q 9.375 63.484375 14.515625 67.671875 
Q 19.671875 71.875 27.484375 71.875 
Q 33.25 71.875 37.59375 69.546875 
Q 41.9375 67.234375 44.765625 62.859375 
Q 47.609375 58.5 49.21875 52.21875 
Q 50.828125 45.953125 50.828125 35.296875 
Q 50.828125 22.703125 48.234375 14.96875 
Q 45.65625 7.234375 40.5 3 
Q 35.359375 -1.21875 27.484375 -1.21875 
Q 17.140625 -1.21875 11.234375 6.203125 
Q 4.15625 15.140625 4.15625 35.296875 
z
M 13.1875 35.296875 
Q 13.1875 17.671875 17.3125 11.828125 
Q 21.4375 6 27.484375 6 
Q 33.546875 6 37.671875 11.859375 
Q 41.796875 17.71875 41.796875 35.296875 
Q 41.796875 52.984375 37.671875 58.78125 
Q 33.546875 64.59375 27.390625 64.59375 
Q 21.34375 64.59375 17.71875 59.46875 
Q 13.1875 52.9375 13.1875 35.296875 
z
" id="ArialMT-48"/>
       </defs>
       <use xlink:href="#ArialMT-48"/>
      </g>
     </g>
    </g>
    <g id="xtick_2">
     <g id="line2d_3">
      <path clip-path="url(#pa4a15439cf)" d="M 105.898347 227.581818 
L 105.898347 50.469818 
" style="fill:none;stroke:#b0b0b0;stroke-linecap:square;stroke-opacity:0.25;stroke-width:0.8;"/>
     </g>
     <g id="line2d_4">
      <g>
       <use style="stroke:#000000;stroke-width:0.8;" x="105.898347" xlink:href="#m15dc3e9080" y="227.581818"/>
      </g>
     </g>
     <g id="text_2">
      <!-- 1 -->
      <g transform="translate(102.561785 243.171193)scale(0.12 -0.12)">
       <defs>
        <path d="M 37.25 0 
L 28.46875 0 
L 28.46875 56 
Q 25.296875 52.984375 20.140625 49.953125 
Q 14.984375 46.921875 10.890625 45.40625 
L 10.890625 53.90625 
Q 18.265625 57.375 23.78125 62.296875 
Q 29.296875 67.234375 31.59375 71.875 
L 37.25 71.875 
z
" id="ArialMT-49"/>
       </defs>
       <use xlink:href="#ArialMT-49"/>
      </g>
     </g>
    </g>
    <g id="xtick_3">
     <g id="line2d_5">
      <path clip-path="url(#pa4a15439cf)" d="M 152.493388 227.581818 
L 152.493388 50.469818 
" style="fill:none;stroke:#b0b0b0;stroke-linecap:square;stroke-opacity:0.25;stroke-width:0.8;"/>
     </g>
     <g id="line2d_6">
      <g>
       <use style="stroke:#000000;stroke-width:0.8;" x="152.493388" xlink:href="#m15dc3e9080" y="227.581818"/>
      </g>
     </g>
     <g id="text_3">
      <!-- 2 -->
      <g transform="translate(149.156826 243.171193)scale(0.12 -0.12)">
       <defs>
        <path d="M 50.34375 8.453125 
L 50.34375 0 
L 3.03125 0 
Q 2.9375 3.171875 4.046875 6.109375 
Q 5.859375 10.9375 9.828125 15.625 
Q 13.8125 20.3125 21.34375 26.46875 
Q 33.015625 36.03125 37.109375 41.625 
Q 41.21875 47.21875 41.21875 52.203125 
Q 41.21875 57.421875 37.46875 61 
Q 33.734375 64.59375 27.734375 64.59375 
Q 21.390625 64.59375 17.578125 60.78125 
Q 13.765625 56.984375 13.71875 50.25 
L 4.6875 51.171875 
Q 5.609375 61.28125 11.65625 66.578125 
Q 17.71875 71.875 27.9375 71.875 
Q 38.234375 71.875 44.234375 66.15625 
Q 50.25 60.453125 50.25 52 
Q 50.25 47.703125 48.484375 43.546875 
Q 46.734375 39.40625 42.65625 34.8125 
Q 38.578125 30.21875 29.109375 22.21875 
Q 21.1875 15.578125 18.9375 13.203125 
Q 16.703125 10.84375 15.234375 8.453125 
z
" id="ArialMT-50"/>
       </defs>
       <use xlink:href="#ArialMT-50"/>
      </g>
     </g>
    </g>
    <g id="xtick_4">
     <g id="line2d_7">
      <path clip-path="url(#pa4a15439cf)" d="M 199.08843 227.581818 
L 199.08843 50.469818 
" style="fill:none;stroke:#b0b0b0;stroke-linecap:square;stroke-opacity:0.25;stroke-width:0.8;"/>
     </g>
     <g id="line2d_8">
      <g>
       <use style="stroke:#000000;stroke-width:0.8;" x="199.08843" xlink:href="#m15dc3e9080" y="227.581818"/>
      </g>
     </g>
     <g id="text_4">
      <!-- 3 -->
      <g transform="translate(195.751867 243.171193)scale(0.12 -0.12)">
       <defs>
        <path d="M 4.203125 18.890625 
L 12.984375 20.0625 
Q 14.5 12.59375 18.140625 9.296875 
Q 21.78125 6 27 6 
Q 33.203125 6 37.46875 10.296875 
Q 41.75 14.59375 41.75 20.953125 
Q 41.75 27 37.796875 30.921875 
Q 33.84375 34.859375 27.734375 34.859375 
Q 25.25 34.859375 21.53125 33.890625 
L 22.515625 41.609375 
Q 23.390625 41.5 23.921875 41.5 
Q 29.546875 41.5 34.03125 44.421875 
Q 38.53125 47.359375 38.53125 53.46875 
Q 38.53125 58.296875 35.25 61.46875 
Q 31.984375 64.65625 26.8125 64.65625 
Q 21.6875 64.65625 18.265625 61.421875 
Q 14.84375 58.203125 13.875 51.765625 
L 5.078125 53.328125 
Q 6.6875 62.15625 12.390625 67.015625 
Q 18.109375 71.875 26.609375 71.875 
Q 32.46875 71.875 37.390625 69.359375 
Q 42.328125 66.84375 44.9375 62.5 
Q 47.5625 58.15625 47.5625 53.265625 
Q 47.5625 48.640625 45.0625 44.828125 
Q 42.578125 41.015625 37.703125 38.765625 
Q 44.046875 37.3125 47.5625 32.6875 
Q 51.078125 28.078125 51.078125 21.140625 
Q 51.078125 11.765625 44.234375 5.25 
Q 37.40625 -1.265625 26.953125 -1.265625 
Q 17.53125 -1.265625 11.296875 4.34375 
Q 5.078125 9.96875 4.203125 18.890625 
z
" id="ArialMT-51"/>
       </defs>
       <use xlink:href="#ArialMT-51"/>
      </g>
     </g>
    </g>
    <g id="xtick_5">
     <g id="line2d_9">
      <path clip-path="url(#pa4a15439cf)" d="M 245.683471 227.581818 
L 245.683471 50.469818 
" style="fill:none;stroke:#b0b0b0;stroke-linecap:square;stroke-opacity:0.25;stroke-width:0.8;"/>
     </g>
     <g id="line2d_10">
      <g>
       <use style="stroke:#000000;stroke-width:0.8;" x="245.683471" xlink:href="#m15dc3e9080" y="227.581818"/>
      </g>
     </g>
     <g id="text_5">
      <!-- 4 -->
      <g transform="translate(242.346909 243.171193)scale(0.12 -0.12)">
       <defs>
        <path d="M 32.328125 0 
L 32.328125 17.140625 
L 1.265625 17.140625 
L 1.265625 25.203125 
L 33.9375 71.578125 
L 41.109375 71.578125 
L 41.109375 25.203125 
L 50.78125 25.203125 
L 50.78125 17.140625 
L 41.109375 17.140625 
L 41.109375 0 
z
M 32.328125 25.203125 
L 32.328125 57.46875 
L 9.90625 25.203125 
z
" id="ArialMT-52"/>
       </defs>
       <use xlink:href="#ArialMT-52"/>
      </g>
     </g>
    </g>
    <g id="xtick_6">
     <g id="line2d_11">
      <path clip-path="url(#pa4a15439cf)" d="M 292.278512 227.581818 
L 292.278512 50.469818 
" style="fill:none;stroke:#b0b0b0;stroke-linecap:square;stroke-opacity:0.25;stroke-width:0.8;"/>
     </g>
     <g id="line2d_12">
      <g>
       <use style="stroke:#000000;stroke-width:0.8;" x="292.278512" xlink:href="#m15dc3e9080" y="227.581818"/>
      </g>
     </g>
     <g id="text_6">
      <!-- 5 -->
      <g transform="translate(288.94195 243.171193)scale(0.12 -0.12)">
       <defs>
        <path d="M 4.15625 18.75 
L 13.375 19.53125 
Q 14.40625 12.796875 18.140625 9.390625 
Q 21.875 6 27.15625 6 
Q 33.5 6 37.890625 10.78125 
Q 42.28125 15.578125 42.28125 23.484375 
Q 42.28125 31 38.0625 35.34375 
Q 33.84375 39.703125 27 39.703125 
Q 22.75 39.703125 19.328125 37.765625 
Q 15.921875 35.84375 13.96875 32.765625 
L 5.71875 33.84375 
L 12.640625 70.609375 
L 48.25 70.609375 
L 48.25 62.203125 
L 19.671875 62.203125 
L 15.828125 42.96875 
Q 22.265625 47.46875 29.34375 47.46875 
Q 38.71875 47.46875 45.15625 40.96875 
Q 51.609375 34.46875 51.609375 24.265625 
Q 51.609375 14.546875 45.953125 7.46875 
Q 39.0625 -1.21875 27.15625 -1.21875 
Q 17.390625 -1.21875 11.203125 4.25 
Q 5.03125 9.71875 4.15625 18.75 
z
" id="ArialMT-53"/>
       </defs>
       <use xlink:href="#ArialMT-53"/>
      </g>
     </g>
    </g>
    <g id="text_7">
     <!-- Time -->
     <g transform="translate(160.49919 259.577131)scale(0.14 -0.14)">
      <defs>
       <path d="M 25.921875 0 
L 25.921875 63.140625 
L 2.34375 63.140625 
L 2.34375 71.578125 
L 59.078125 71.578125 
L 59.078125 63.140625 
L 35.40625 63.140625 
L 35.40625 0 
z
" id="ArialMT-84"/>
       <path d="M 6.640625 61.46875 
L 6.640625 71.578125 
L 15.4375 71.578125 
L 15.4375 61.46875 
z
M 6.640625 0 
L 6.640625 51.859375 
L 15.4375 51.859375 
L 15.4375 0 
z
" id="ArialMT-105"/>
       <path d="M 6.59375 0 
L 6.59375 51.859375 
L 14.453125 51.859375 
L 14.453125 44.578125 
Q 16.890625 48.390625 20.9375 50.703125 
Q 25 53.03125 30.171875 53.03125 
Q 35.9375 53.03125 39.625 50.640625 
Q 43.3125 48.25 44.828125 43.953125 
Q 50.984375 53.03125 60.84375 53.03125 
Q 68.5625 53.03125 72.703125 48.75 
Q 76.859375 44.484375 76.859375 35.59375 
L 76.859375 0 
L 68.109375 0 
L 68.109375 32.671875 
Q 68.109375 37.9375 67.25 40.25 
Q 66.40625 42.578125 64.15625 43.984375 
Q 61.921875 45.40625 58.890625 45.40625 
Q 53.421875 45.40625 49.796875 41.765625 
Q 46.1875 38.140625 46.1875 30.125 
L 46.1875 0 
L 37.40625 0 
L 37.40625 33.6875 
Q 37.40625 39.546875 35.25 42.46875 
Q 33.109375 45.40625 28.21875 45.40625 
Q 24.515625 45.40625 21.359375 43.453125 
Q 18.21875 41.5 16.796875 37.734375 
Q 15.375 33.984375 15.375 26.90625 
L 15.375 0 
z
" id="ArialMT-109"/>
       <path d="M 42.09375 16.703125 
L 51.171875 15.578125 
Q 49.03125 7.625 43.21875 3.21875 
Q 37.40625 -1.171875 28.375 -1.171875 
Q 17 -1.171875 10.328125 5.828125 
Q 3.65625 12.84375 3.65625 25.484375 
Q 3.65625 38.578125 10.390625 45.796875 
Q 17.140625 53.03125 27.875 53.03125 
Q 38.28125 53.03125 44.875 45.953125 
Q 51.46875 38.875 51.46875 26.03125 
Q 51.46875 25.25 51.421875 23.6875 
L 12.75 23.6875 
Q 13.234375 15.140625 17.578125 10.59375 
Q 21.921875 6.0625 28.421875 6.0625 
Q 33.25 6.0625 36.671875 8.59375 
Q 40.09375 11.140625 42.09375 16.703125 
z
M 13.234375 30.90625 
L 42.1875 30.90625 
Q 41.609375 37.453125 38.875 40.71875 
Q 34.671875 45.796875 27.984375 45.796875 
Q 21.921875 45.796875 17.796875 41.75 
Q 13.671875 37.703125 13.234375 30.90625 
z
" id="ArialMT-101"/>
      </defs>
      <use xlink:href="#ArialMT-84"/>
      <use x="57.333984" xlink:href="#ArialMT-105"/>
      <use x="79.550781" xlink:href="#ArialMT-109"/>
      <use x="162.851562" xlink:href="#ArialMT-101"/>
     </g>
    </g>
    <g id="text_8">
     <!-- 1e6 -->
     <g transform="translate(283.907898 257.145568)scale(0.12 -0.12)">
      <defs>
       <path d="M 49.75 54.046875 
L 41.015625 53.375 
Q 39.84375 58.546875 37.703125 60.890625 
Q 34.125 64.65625 28.90625 64.65625 
Q 24.703125 64.65625 21.53125 62.3125 
Q 17.390625 59.28125 14.984375 53.46875 
Q 12.59375 47.65625 12.5 36.921875 
Q 15.671875 41.75 20.265625 44.09375 
Q 24.859375 46.4375 29.890625 46.4375 
Q 38.671875 46.4375 44.84375 39.96875 
Q 51.03125 33.5 51.03125 23.25 
Q 51.03125 16.5 48.125 10.71875 
Q 45.21875 4.9375 40.140625 1.859375 
Q 35.0625 -1.21875 28.609375 -1.21875 
Q 17.625 -1.21875 10.6875 6.859375 
Q 3.765625 14.9375 3.765625 33.5 
Q 3.765625 54.25 11.421875 63.671875 
Q 18.109375 71.875 29.4375 71.875 
Q 37.890625 71.875 43.28125 67.140625 
Q 48.6875 62.40625 49.75 54.046875 
z
M 13.875 23.1875 
Q 13.875 18.65625 15.796875 14.5 
Q 17.71875 10.359375 21.1875 8.171875 
Q 24.65625 6 28.46875 6 
Q 34.03125 6 38.03125 10.484375 
Q 42.046875 14.984375 42.046875 22.703125 
Q 42.046875 30.125 38.078125 34.390625 
Q 34.125 38.671875 28.125 38.671875 
Q 22.171875 38.671875 18.015625 34.390625 
Q 13.875 30.125 13.875 23.1875 
z
" id="ArialMT-54"/>
      </defs>
      <use xlink:href="#ArialMT-49"/>
      <use x="55.615234" xlink:href="#ArialMT-101"/>
      <use x="111.230469" xlink:href="#ArialMT-54"/>
     </g>
    </g>
   </g>
   <g id="matplotlib.axis_2">
    <g id="ytick_1">
     <g id="line2d_13">
      <path clip-path="url(#pa4a15439cf)" d="M 47.654545 203.968479 
L 303.927273 203.968479 
" style="fill:none;stroke:#b0b0b0;stroke-linecap:square;stroke-opacity:0.25;stroke-width:0.8;"/>
     </g>
     <g id="line2d_14">
      <defs>
       <path d="M 0 0 
L -3.5 0 
" id="m0c99a2f542" style="stroke:#000000;stroke-width:0.8;"/>
      </defs>
      <g>
       <use style="stroke:#000000;stroke-width:0.8;" x="47.654545" xlink:href="#m0c99a2f542" y="203.968479"/>
      </g>
     </g>
     <g id="text_9">
      <!-- 10 -->
      <g transform="translate(27.308295 208.263166)scale(0.12 -0.12)">
       <use xlink:href="#ArialMT-49"/>
       <use x="55.615234" xlink:href="#ArialMT-48"/>
      </g>
     </g>
    </g>
    <g id="ytick_2">
     <g id="line2d_15">
      <path clip-path="url(#pa4a15439cf)" d="M 47.654545 172.842891 
L 303.927273 172.842891 
" style="fill:none;stroke:#b0b0b0;stroke-linecap:square;stroke-opacity:0.25;stroke-width:0.8;"/>
     </g>
     <g id="line2d_16">
      <g>
       <use style="stroke:#000000;stroke-width:0.8;" x="47.654545" xlink:href="#m0c99a2f542" y="172.842891"/>
      </g>
     </g>
     <g id="text_10">
      <!-- 20 -->
      <g transform="translate(27.308295 177.137579)scale(0.12 -0.12)">
       <use xlink:href="#ArialMT-50"/>
       <use x="55.615234" xlink:href="#ArialMT-48"/>
      </g>
     </g>
    </g>
    <g id="ytick_3">
     <g id="line2d_17">
      <path clip-path="url(#pa4a15439cf)" d="M 47.654545 141.717303 
L 303.927273 141.717303 
" style="fill:none;stroke:#b0b0b0;stroke-linecap:square;stroke-opacity:0.25;stroke-width:0.8;"/>
     </g>
     <g id="line2d_18">
      <g>
       <use style="stroke:#000000;stroke-width:0.8;" x="47.654545" xlink:href="#m0c99a2f542" y="141.717303"/>
      </g>
     </g>
     <g id="text_11">
      <!-- 30 -->
      <g transform="translate(27.308295 146.011991)scale(0.12 -0.12)">
       <use xlink:href="#ArialMT-51"/>
       <use x="55.615234" xlink:href="#ArialMT-48"/>
      </g>
     </g>
    </g>
    <g id="ytick_4">
     <g id="line2d_19">
      <path clip-path="url(#pa4a15439cf)" d="M 47.654545 110.591716 
L 303.927273 110.591716 
" style="fill:none;stroke:#b0b0b0;stroke-linecap:square;stroke-opacity:0.25;stroke-width:0.8;"/>
     </g>
     <g id="line2d_20">
      <g>
       <use style="stroke:#000000;stroke-width:0.8;" x="47.654545" xlink:href="#m0c99a2f542" y="110.591716"/>
      </g>
     </g>
     <g id="text_12">
      <!-- 40 -->
      <g transform="translate(27.308295 114.886403)scale(0.12 -0.12)">
       <use xlink:href="#ArialMT-52"/>
       <use x="55.615234" xlink:href="#ArialMT-48"/>
      </g>
     </g>
    </g>
    <g id="ytick_5">
     <g id="line2d_21">
      <path clip-path="url(#pa4a15439cf)" d="M 47.654545 79.466128 
L 303.927273 79.466128 
" style="fill:none;stroke:#b0b0b0;stroke-linecap:square;stroke-opacity:0.25;stroke-width:0.8;"/>
     </g>
     <g id="line2d_22">
      <g>
       <use style="stroke:#000000;stroke-width:0.8;" x="47.654545" xlink:href="#m0c99a2f542" y="79.466128"/>
      </g>
     </g>
     <g id="text_13">
      <!-- 50 -->
      <g transform="translate(27.308295 83.760815)scale(0.12 -0.12)">
       <use xlink:href="#ArialMT-53"/>
       <use x="55.615234" xlink:href="#ArialMT-48"/>
      </g>
     </g>
    </g>
    <g id="text_14">
     <!-- N -->
     <g transform="translate(20.525795 144.081131)rotate(-90)scale(0.14 -0.14)">
      <defs>
       <path d="M 7.625 0 
L 7.625 71.578125 
L 17.328125 71.578125 
L 54.9375 15.375 
L 54.9375 71.578125 
L 64.015625 71.578125 
L 64.015625 0 
L 54.296875 0 
L 16.703125 56.25 
L 16.703125 0 
z
" id="ArialMT-78"/>
      </defs>
      <use xlink:href="#ArialMT-78"/>
     </g>
    </g>
   </g>
   <g id="line2d_23">
    <path clip-path="url(#pa4a15439cf)" d="M 59.303306 219.531273 
L 59.305204 58.520364 
L 59.436222 114.215319 
L 59.680768 134.283513 
L 60.018582 145.074526 
L 60.437938 151.819995 
L 60.927186 156.322495 
L 61.479337 159.453022 
L 62.085073 161.66791 
L 62.742063 163.261958 
L 63.452637 164.422626 
L 64.233104 165.281378 
L 65.11841 165.926236 
L 66.169128 166.411976 
L 67.497087 166.771456 
L 69.325942 167.021136 
L 72.233473 167.169208 
L 78.775416 167.225522 
L 151.719954 167.229222 
L 292.278512 167.229222 
L 292.278512 167.229222 
" style="fill:none;stroke:#2e8b57;stroke-linecap:square;stroke-width:2.2;"/>
   </g>
   <g id="patch_3">
    <path d="M 47.654545 227.581818 
L 47.654545 50.469818 
" style="fill:none;stroke:#000000;stroke-linecap:square;stroke-linejoin:miter;stroke-width:0.8;"/>
   </g>
   <g id="patch_4">
    <path d="M 303.927273 227.581818 
L 303.927273 50.469818 
" style="fill:none;stroke:#000000;stroke-linecap:square;stroke-linejoin:miter;stroke-width:0.8;"/>
   </g>
   <g id="patch_5">
    <path d="M 47.654545 227.581818 
L 303.927273 227.581818 
" style="fill:none;stroke:#000000;stroke-linecap:square;stroke-linejoin:miter;stroke-width:0.8;"/>
   </g>
   <g id="patch_6">
    <path d="M 47.654545 50.469818 
L 303.927273 50.469818 
" style="fill:none;stroke:#000000;stroke-linecap:square;stroke-linejoin:miter;stroke-width:0.8;"/>
   </g>
   <g id="text_15">
    <!-- N(t) -->
    <g transform="translate(162.463409 44.469818)scale(0.16 -0.16)">
     <defs>
      <path d="M 23.390625 -21.046875 
Q 16.109375 -11.859375 11.078125 0.4375 
Q 6.0625 12.75 6.0625 25.921875 
Q 6.0625 37.546875 9.8125 48.1875 
Q 14.203125 60.546875 23.390625 72.796875 
L 29.6875 72.796875 
Q 23.78125 62.640625 21.875 58.296875 
Q 18.890625 51.5625 17.1875 44.234375 
Q 15.09375 35.109375 15.09375 25.875 
Q 15.09375 2.390625 29.6875 -21.046875 
z
" id="ArialMT-40"/>
      <path d="M 25.78125 7.859375 
L 27.046875 0.09375 
Q 23.34375 -0.6875 20.40625 -0.6875 
Q 15.625 -0.6875 12.984375 0.828125 
Q 10.359375 2.34375 9.28125 4.8125 
Q 8.203125 7.28125 8.203125 15.1875 
L 8.203125 45.015625 
L 1.765625 45.015625 
L 1.765625 51.859375 
L 8.203125 51.859375 
L 8.203125 64.703125 
L 16.9375 69.96875 
L 16.9375 51.859375 
L 25.78125 51.859375 
L 25.78125 45.015625 
L 16.9375 45.015625 
L 16.9375 14.703125 
Q 16.9375 10.9375 17.40625 9.859375 
Q 17.875 8.796875 18.921875 8.15625 
Q 19.96875 7.515625 21.921875 7.515625 
Q 23.390625 7.515625 25.78125 7.859375 
z
" id="ArialMT-116"/>
      <path d="M 12.359375 -21.046875 
L 6.0625 -21.046875 
Q 20.65625 2.390625 20.65625 25.875 
Q 20.65625 35.0625 18.5625 44.09375 
Q 16.890625 51.421875 13.921875 58.15625 
Q 12.015625 62.546875 6.0625 72.796875 
L 12.359375 72.796875 
Q 21.53125 60.546875 25.921875 48.1875 
Q 29.6875 37.546875 29.6875 25.921875 
Q 29.6875 12.75 24.625 0.4375 
Q 19.578125 -11.859375 12.359375 -21.046875 
z
" id="ArialMT-41"/>
     </defs>
     <use xlink:href="#ArialMT-78"/>
     <use x="72.216797" xlink:href="#ArialMT-40"/>
     <use x="105.517578" xlink:href="#ArialMT-116"/>
     <use x="133.300781" xlink:href="#ArialMT-41"/>
    </g>
   </g>
  </g>
  <g id="axes_2">
   <g id="patch_7">
    <path d="M 358.290909 227.581818 
L 614.563636 227.581818 
L 614.563636 50.469818 
L 358.290909 50.469818 
z
" style="fill:#ffffff;"/>
   </g>
   <g id="matplotlib.axis_3">
    <g id="xtick_7">
     <g id="line2d_24">
      <path clip-path="url(#p78a411a8b3)" d="M 369.939669 227.581818 
L 369.939669 50.469818 
" style="fill:none;stroke:#b0b0b0;stroke-linecap:square;stroke-opacity:0.25;stroke-width:0.8;"/>
     </g>
     <g id="line2d_25">
      <g>
       <use style="stroke:#000000;stroke-width:0.8;" x="369.939669" xlink:href="#m15dc3e9080" y="227.581818"/>
      </g>
     </g>
     <g id="text_16">
      <!-- 0 -->
      <g transform="translate(366.603107 243.171193)scale(0.12 -0.12)">
       <use xlink:href="#ArialMT-48"/>
      </g>
     </g>
    </g>
    <g id="xtick_8">
     <g id="line2d_26">
      <path clip-path="url(#p78a411a8b3)" d="M 416.534711 227.581818 
L 416.534711 50.469818 
" style="fill:none;stroke:#b0b0b0;stroke-linecap:square;stroke-opacity:0.25;stroke-width:0.8;"/>
     </g>
     <g id="line2d_27">
      <g>
       <use style="stroke:#000000;stroke-width:0.8;" x="416.534711" xlink:href="#m15dc3e9080" y="227.581818"/>
      </g>
     </g>
     <g id="text_17">
      <!-- 1 -->
      <g transform="translate(413.198148 243.171193)scale(0.12 -0.12)">
       <use xlink:href="#ArialMT-49"/>
      </g>
     </g>
    </g>
    <g id="xtick_9">
     <g id="line2d_28">
      <path clip-path="url(#p78a411a8b3)" d="M 463.129752 227.581818 
L 463.129752 50.469818 
" style="fill:none;stroke:#b0b0b0;stroke-linecap:square;stroke-opacity:0.25;stroke-width:0.8;"/>
     </g>
     <g id="line2d_29">
      <g>
       <use style="stroke:#000000;stroke-width:0.8;" x="463.129752" xlink:href="#m15dc3e9080" y="227.581818"/>
      </g>
     </g>
     <g id="text_18">
      <!-- 2 -->
      <g transform="translate(459.79319 243.171193)scale(0.12 -0.12)">
       <use xlink:href="#ArialMT-50"/>
      </g>
     </g>
    </g>
    <g id="xtick_10">
     <g id="line2d_30">
      <path clip-path="url(#p78a411a8b3)" d="M 509.724793 227.581818 
L 509.724793 50.469818 
" style="fill:none;stroke:#b0b0b0;stroke-linecap:square;stroke-opacity:0.25;stroke-width:0.8;"/>
     </g>
     <g id="line2d_31">
      <g>
       <use style="stroke:#000000;stroke-width:0.8;" x="509.724793" xlink:href="#m15dc3e9080" y="227.581818"/>
      </g>
     </g>
     <g id="text_19">
      <!-- 3 -->
      <g transform="translate(506.388231 243.171193)scale(0.12 -0.12)">
       <use xlink:href="#ArialMT-51"/>
      </g>
     </g>
    </g>
    <g id="xtick_11">
     <g id="line2d_32">
      <path clip-path="url(#p78a411a8b3)" d="M 556.319835 227.581818 
L 556.319835 50.469818 
" style="fill:none;stroke:#b0b0b0;stroke-linecap:square;stroke-opacity:0.25;stroke-width:0.8;"/>
     </g>
     <g id="line2d_33">
      <g>
       <use style="stroke:#000000;stroke-width:0.8;" x="556.319835" xlink:href="#m15dc3e9080" y="227.581818"/>
      </g>
     </g>
     <g id="text_20">
      <!-- 4 -->
      <g transform="translate(552.983272 243.171193)scale(0.12 -0.12)">
       <use xlink:href="#ArialMT-52"/>
      </g>
     </g>
    </g>
    <g id="xtick_12">
     <g id="line2d_34">
      <path clip-path="url(#p78a411a8b3)" d="M 602.914876 227.581818 
L 602.914876 50.469818 
" style="fill:none;stroke:#b0b0b0;stroke-linecap:square;stroke-opacity:0.25;stroke-width:0.8;"/>
     </g>
     <g id="line2d_35">
      <g>
       <use style="stroke:#000000;stroke-width:0.8;" x="602.914876" xlink:href="#m15dc3e9080" y="227.581818"/>
      </g>
     </g>
     <g id="text_21">
      <!-- 5 -->
      <g transform="translate(599.578314 243.171193)scale(0.12 -0.12)">
       <use xlink:href="#ArialMT-53"/>
      </g>
     </g>
    </g>
    <g id="text_22">
     <!-- Time -->
     <g transform="translate(471.135554 259.577131)scale(0.14 -0.14)">
      <use xlink:href="#ArialMT-84"/>
      <use x="57.333984" xlink:href="#ArialMT-105"/>
      <use x="79.550781" xlink:href="#ArialMT-109"/>
      <use x="162.851562" xlink:href="#ArialMT-101"/>
     </g>
    </g>
    <g id="text_23">
     <!-- 1e6 -->
     <g transform="translate(594.544261 257.145568)scale(0.12 -0.12)">
      <use xlink:href="#ArialMT-49"/>
      <use x="55.615234" xlink:href="#ArialMT-101"/>
      <use x="111.230469" xlink:href="#ArialMT-54"/>
     </g>
    </g>
   </g>
   <g id="matplotlib.axis_4">
    <g id="ytick_6">
     <g id="line2d_36">
      <path clip-path="url(#p78a411a8b3)" d="M 358.290909 220.062615 
L 614.563636 220.062615 
" style="fill:none;stroke:#b0b0b0;stroke-linecap:square;stroke-opacity:0.25;stroke-width:0.8;"/>
     </g>
     <g id="line2d_37">
      <g>
       <use style="stroke:#000000;stroke-width:0.8;" x="358.290909" xlink:href="#m0c99a2f542" y="220.062615"/>
      </g>
     </g>
     <g id="text_24">
      <!-- 0 -->
      <g transform="translate(344.617784 224.357303)scale(0.12 -0.12)">
       <use xlink:href="#ArialMT-48"/>
      </g>
     </g>
    </g>
    <g id="ytick_7">
     <g id="line2d_38">
      <path clip-path="url(#p78a411a8b3)" d="M 358.290909 193.495495 
L 614.563636 193.495495 
" style="fill:none;stroke:#b0b0b0;stroke-linecap:square;stroke-opacity:0.25;stroke-width:0.8;"/>
     </g>
     <g id="line2d_39">
      <g>
       <use style="stroke:#000000;stroke-width:0.8;" x="358.290909" xlink:href="#m0c99a2f542" y="193.495495"/>
      </g>
     </g>
     <g id="text_25">
      <!-- 25 -->
      <g transform="translate(337.944659 197.790182)scale(0.12 -0.12)">
       <use xlink:href="#ArialMT-50"/>
       <use x="55.615234" xlink:href="#ArialMT-53"/>
      </g>
     </g>
    </g>
    <g id="ytick_8">
     <g id="line2d_40">
      <path clip-path="url(#p78a411a8b3)" d="M 358.290909 166.928374 
L 614.563636 166.928374 
" style="fill:none;stroke:#b0b0b0;stroke-linecap:square;stroke-opacity:0.25;stroke-width:0.8;"/>
     </g>
     <g id="line2d_41">
      <g>
       <use style="stroke:#000000;stroke-width:0.8;" x="358.290909" xlink:href="#m0c99a2f542" y="166.928374"/>
      </g>
     </g>
     <g id="text_26">
      <!-- 50 -->
      <g transform="translate(337.944659 171.223062)scale(0.12 -0.12)">
       <use xlink:href="#ArialMT-53"/>
       <use x="55.615234" xlink:href="#ArialMT-48"/>
      </g>
     </g>
    </g>
    <g id="ytick_9">
     <g id="line2d_42">
      <path clip-path="url(#p78a411a8b3)" d="M 358.290909 140.361254 
L 614.563636 140.361254 
" style="fill:none;stroke:#b0b0b0;stroke-linecap:square;stroke-opacity:0.25;stroke-width:0.8;"/>
     </g>
     <g id="line2d_43">
      <g>
       <use style="stroke:#000000;stroke-width:0.8;" x="358.290909" xlink:href="#m0c99a2f542" y="140.361254"/>
      </g>
     </g>
     <g id="text_27">
      <!-- 75 -->
      <g transform="translate(337.944659 144.655941)scale(0.12 -0.12)">
       <defs>
        <path d="M 4.734375 62.203125 
L 4.734375 70.65625 
L 51.078125 70.65625 
L 51.078125 63.8125 
Q 44.234375 56.546875 37.515625 44.484375 
Q 30.8125 32.421875 27.15625 19.671875 
Q 24.515625 10.6875 23.78125 0 
L 14.75 0 
Q 14.890625 8.453125 18.0625 20.40625 
Q 21.234375 32.375 27.171875 43.484375 
Q 33.109375 54.59375 39.796875 62.203125 
z
" id="ArialMT-55"/>
       </defs>
       <use xlink:href="#ArialMT-55"/>
       <use x="55.615234" xlink:href="#ArialMT-53"/>
      </g>
     </g>
    </g>
    <g id="ytick_10">
     <g id="line2d_44">
      <path clip-path="url(#p78a411a8b3)" d="M 358.290909 113.794133 
L 614.563636 113.794133 
" style="fill:none;stroke:#b0b0b0;stroke-linecap:square;stroke-opacity:0.25;stroke-width:0.8;"/>
     </g>
     <g id="line2d_45">
      <g>
       <use style="stroke:#000000;stroke-width:0.8;" x="358.290909" xlink:href="#m0c99a2f542" y="113.794133"/>
      </g>
     </g>
     <g id="text_28">
      <!-- 100 -->
      <g transform="translate(331.271534 118.088821)scale(0.12 -0.12)">
       <use xlink:href="#ArialMT-49"/>
       <use x="55.615234" xlink:href="#ArialMT-48"/>
       <use x="111.230469" xlink:href="#ArialMT-48"/>
      </g>
     </g>
    </g>
    <g id="ytick_11">
     <g id="line2d_46">
      <path clip-path="url(#p78a411a8b3)" d="M 358.290909 87.227013 
L 614.563636 87.227013 
" style="fill:none;stroke:#b0b0b0;stroke-linecap:square;stroke-opacity:0.25;stroke-width:0.8;"/>
     </g>
     <g id="line2d_47">
      <g>
       <use style="stroke:#000000;stroke-width:0.8;" x="358.290909" xlink:href="#m0c99a2f542" y="87.227013"/>
      </g>
     </g>
     <g id="text_29">
      <!-- 125 -->
      <g transform="translate(331.271534 91.5217)scale(0.12 -0.12)">
       <use xlink:href="#ArialMT-49"/>
       <use x="55.615234" xlink:href="#ArialMT-50"/>
       <use x="111.230469" xlink:href="#ArialMT-53"/>
      </g>
     </g>
    </g>
    <g id="ytick_12">
     <g id="line2d_48">
      <path clip-path="url(#p78a411a8b3)" d="M 358.290909 60.659893 
L 614.563636 60.659893 
" style="fill:none;stroke:#b0b0b0;stroke-linecap:square;stroke-opacity:0.25;stroke-width:0.8;"/>
     </g>
     <g id="line2d_49">
      <g>
       <use style="stroke:#000000;stroke-width:0.8;" x="358.290909" xlink:href="#m0c99a2f542" y="60.659893"/>
      </g>
     </g>
     <g id="text_30">
      <!-- 150 -->
      <g transform="translate(331.271534 64.95458)scale(0.12 -0.12)">
       <use xlink:href="#ArialMT-49"/>
       <use x="55.615234" xlink:href="#ArialMT-53"/>
       <use x="111.230469" xlink:href="#ArialMT-48"/>
      </g>
     </g>
    </g>
    <g id="text_31">
     <!-- u -->
     <g transform="translate(324.489034 142.918474)rotate(-90)scale(0.14 -0.14)">
      <defs>
       <path d="M 40.578125 0 
L 40.578125 7.625 
Q 34.515625 -1.171875 24.125 -1.171875 
Q 19.53125 -1.171875 15.546875 0.578125 
Q 11.578125 2.34375 9.640625 5 
Q 7.71875 7.671875 6.9375 11.53125 
Q 6.390625 14.109375 6.390625 19.734375 
L 6.390625 51.859375 
L 15.1875 51.859375 
L 15.1875 23.09375 
Q 15.1875 16.21875 15.71875 13.8125 
Q 16.546875 10.359375 19.234375 8.375 
Q 21.921875 6.390625 25.875 6.390625 
Q 29.828125 6.390625 33.296875 8.421875 
Q 36.765625 10.453125 38.203125 13.9375 
Q 39.65625 17.4375 39.65625 24.078125 
L 39.65625 51.859375 
L 48.4375 51.859375 
L 48.4375 0 
z
" id="ArialMT-117"/>
      </defs>
      <use xlink:href="#ArialMT-117"/>
     </g>
    </g>
   </g>
   <g id="line2d_50">
    <path clip-path="url(#p78a411a8b3)" d="M 369.939669 219.531273 
L 370.077193 185.702031 
L 370.410322 151.615896 
L 370.871613 126.144098 
L 371.419105 107.558506 
L 372.0295 94.006989 
L 372.68416 84.174722 
L 373.369107 77.066464 
L 374.077352 71.917854 
L 374.804234 68.185569 
L 375.547425 65.477728 
L 376.309254 63.505868 
L 377.094381 62.06631 
L 377.919113 61.004581 
L 378.809078 60.215223 
L 379.813201 59.622846 
L 381.008364 59.181975 
L 382.541341 58.864432 
L 384.731308 58.655719 
L 388.549772 58.547003 
L 400.69011 58.520516 
L 602.914876 58.520364 
L 602.914876 58.520364 
" style="fill:none;stroke:#0000ff;stroke-linecap:square;stroke-width:2.2;"/>
   </g>
   <g id="patch_8">
    <path d="M 358.290909 227.581818 
L 358.290909 50.469818 
" style="fill:none;stroke:#000000;stroke-linecap:square;stroke-linejoin:miter;stroke-width:0.8;"/>
   </g>
   <g id="patch_9">
    <path d="M 614.563636 227.581818 
L 614.563636 50.469818 
" style="fill:none;stroke:#000000;stroke-linecap:square;stroke-linejoin:miter;stroke-width:0.8;"/>
   </g>
   <g id="patch_10">
    <path d="M 358.290909 227.581818 
L 614.563636 227.581818 
" style="fill:none;stroke:#000000;stroke-linecap:square;stroke-linejoin:miter;stroke-width:0.8;"/>
   </g>
   <g id="patch_11">
    <path d="M 358.290909 50.469818 
L 614.563636 50.469818 
" style="fill:none;stroke:#000000;stroke-linecap:square;stroke-linejoin:miter;stroke-width:0.8;"/>
   </g>
   <g id="text_32">
    <!-- u(t) — ESS -->
    <g transform="translate(445.974773 44.469818)scale(0.16 -0.16)">
     <defs>
      <path id="ArialMT-32"/>
      <path d="M 0 22.359375 
L 0 29.4375 
L 100 29.4375 
L 100 22.359375 
z
" id="ArialMT-8212"/>
      <path d="M 7.90625 0 
L 7.90625 71.578125 
L 59.671875 71.578125 
L 59.671875 63.140625 
L 17.390625 63.140625 
L 17.390625 41.21875 
L 56.984375 41.21875 
L 56.984375 32.8125 
L 17.390625 32.8125 
L 17.390625 8.453125 
L 61.328125 8.453125 
L 61.328125 0 
z
" id="ArialMT-69"/>
      <path d="M 4.5 23 
L 13.421875 23.78125 
Q 14.0625 18.40625 16.375 14.96875 
Q 18.703125 11.53125 23.578125 9.40625 
Q 28.46875 7.28125 34.578125 7.28125 
Q 39.984375 7.28125 44.140625 8.890625 
Q 48.296875 10.5 50.3125 13.296875 
Q 52.34375 16.109375 52.34375 19.4375 
Q 52.34375 22.796875 50.390625 25.3125 
Q 48.4375 27.828125 43.953125 29.546875 
Q 41.0625 30.671875 31.203125 33.03125 
Q 21.34375 35.40625 17.390625 37.5 
Q 12.25 40.1875 9.734375 44.15625 
Q 7.234375 48.140625 7.234375 53.078125 
Q 7.234375 58.5 10.296875 63.203125 
Q 13.375 67.921875 19.28125 70.359375 
Q 25.203125 72.796875 32.421875 72.796875 
Q 40.375 72.796875 46.453125 70.234375 
Q 52.546875 67.671875 55.8125 62.6875 
Q 59.078125 57.71875 59.328125 51.421875 
L 50.25 50.734375 
Q 49.515625 57.515625 45.28125 60.984375 
Q 41.0625 64.453125 32.8125 64.453125 
Q 24.21875 64.453125 20.28125 61.296875 
Q 16.359375 58.15625 16.359375 53.71875 
Q 16.359375 49.859375 19.140625 47.359375 
Q 21.875 44.875 33.421875 42.265625 
Q 44.96875 39.65625 49.265625 37.703125 
Q 55.515625 34.8125 58.484375 30.390625 
Q 61.46875 25.984375 61.46875 20.21875 
Q 61.46875 14.5 58.203125 9.4375 
Q 54.9375 4.390625 48.796875 1.578125 
Q 42.671875 -1.21875 35.015625 -1.21875 
Q 25.296875 -1.21875 18.71875 1.609375 
Q 12.15625 4.4375 8.421875 10.125 
Q 4.6875 15.828125 4.5 23 
z
" id="ArialMT-83"/>
     </defs>
     <use xlink:href="#ArialMT-117"/>
     <use x="55.615234" xlink:href="#ArialMT-40"/>
     <use x="88.916016" xlink:href="#ArialMT-116"/>
     <use x="116.699219" xlink:href="#ArialMT-41"/>
     <use x="150" xlink:href="#ArialMT-32"/>
     <use x="177.783203" xlink:href="#ArialMT-8212"/>
     <use x="277.783203" xlink:href="#ArialMT-32"/>
     <use x="305.566406" xlink:href="#ArialMT-69"/>
     <use x="372.265625" xlink:href="#ArialMT-83"/>
     <use x="438.964844" xlink:href="#ArialMT-83"/>
    </g>
   </g>
  </g>
  <g id="axes_3">
   <g id="patch_12">
    <path d="M 668.927273 227.581818 
L 925.2 227.581818 
L 925.2 50.469818 
L 668.927273 50.469818 
z
" style="fill:#ffffff;"/>
   </g>
   <g id="matplotlib.axis_5">
    <g id="xtick_13">
     <g id="line2d_51">
      <path clip-path="url(#p1644740233)" d="M 680.576033 227.581818 
L 680.576033 50.469818 
" style="fill:none;stroke:#b0b0b0;stroke-linecap:square;stroke-opacity:0.25;stroke-width:0.8;"/>
     </g>
     <g id="line2d_52">
      <g>
       <use style="stroke:#000000;stroke-width:0.8;" x="680.576033" xlink:href="#m15dc3e9080" y="227.581818"/>
      </g>
     </g>
     <g id="text_33">
      <!-- 0 -->
      <g transform="translate(677.239471 243.171193)scale(0.12 -0.12)">
       <use xlink:href="#ArialMT-48"/>
      </g>
     </g>
    </g>
    <g id="xtick_14">
     <g id="line2d_53">
      <path clip-path="url(#p1644740233)" d="M 727.171074 227.581818 
L 727.171074 50.469818 
" style="fill:none;stroke:#b0b0b0;stroke-linecap:square;stroke-opacity:0.25;stroke-width:0.8;"/>
     </g>
     <g id="line2d_54">
      <g>
       <use style="stroke:#000000;stroke-width:0.8;" x="727.171074" xlink:href="#m15dc3e9080" y="227.581818"/>
      </g>
     </g>
     <g id="text_34">
      <!-- 1 -->
      <g transform="translate(723.834512 243.171193)scale(0.12 -0.12)">
       <use xlink:href="#ArialMT-49"/>
      </g>
     </g>
    </g>
    <g id="xtick_15">
     <g id="line2d_55">
      <path clip-path="url(#p1644740233)" d="M 773.766116 227.581818 
L 773.766116 50.469818 
" style="fill:none;stroke:#b0b0b0;stroke-linecap:square;stroke-opacity:0.25;stroke-width:0.8;"/>
     </g>
     <g id="line2d_56">
      <g>
       <use style="stroke:#000000;stroke-width:0.8;" x="773.766116" xlink:href="#m15dc3e9080" y="227.581818"/>
      </g>
     </g>
     <g id="text_35">
      <!-- 2 -->
      <g transform="translate(770.429553 243.171193)scale(0.12 -0.12)">
       <use xlink:href="#ArialMT-50"/>
      </g>
     </g>
    </g>
    <g id="xtick_16">
     <g id="line2d_57">
      <path clip-path="url(#p1644740233)" d="M 820.361157 227.581818 
L 820.361157 50.469818 
" style="fill:none;stroke:#b0b0b0;stroke-linecap:square;stroke-opacity:0.25;stroke-width:0.8;"/>
     </g>
     <g id="line2d_58">
      <g>
       <use style="stroke:#000000;stroke-width:0.8;" x="820.361157" xlink:href="#m15dc3e9080" y="227.581818"/>
      </g>
     </g>
     <g id="text_36">
      <!-- 3 -->
      <g transform="translate(817.024595 243.171193)scale(0.12 -0.12)">
       <use xlink:href="#ArialMT-51"/>
      </g>
     </g>
    </g>
    <g id="xtick_17">
     <g id="line2d_59">
      <path clip-path="url(#p1644740233)" d="M 866.956198 227.581818 
L 866.956198 50.469818 
" style="fill:none;stroke:#b0b0b0;stroke-linecap:square;stroke-opacity:0.25;stroke-width:0.8;"/>
     </g>
     <g id="line2d_60">
      <g>
       <use style="stroke:#000000;stroke-width:0.8;" x="866.956198" xlink:href="#m15dc3e9080" y="227.581818"/>
      </g>
     </g>
     <g id="text_37">
      <!-- 4 -->
      <g transform="translate(863.619636 243.171193)scale(0.12 -0.12)">
       <use xlink:href="#ArialMT-52"/>
      </g>
     </g>
    </g>
    <g id="xtick_18">
     <g id="line2d_61">
      <path clip-path="url(#p1644740233)" d="M 913.55124 227.581818 
L 913.55124 50.469818 
" style="fill:none;stroke:#b0b0b0;stroke-linecap:square;stroke-opacity:0.25;stroke-width:0.8;"/>
     </g>
     <g id="line2d_62">
      <g>
       <use style="stroke:#000000;stroke-width:0.8;" x="913.55124" xlink:href="#m15dc3e9080" y="227.581818"/>
      </g>
     </g>
     <g id="text_38">
      <!-- 5 -->
      <g transform="translate(910.214677 243.171193)scale(0.12 -0.12)">
       <use xlink:href="#ArialMT-53"/>
      </g>
     </g>
    </g>
    <g id="text_39">
     <!-- Time -->
     <g transform="translate(781.771918 259.577131)scale(0.14 -0.14)">
      <use xlink:href="#ArialMT-84"/>
      <use x="57.333984" xlink:href="#ArialMT-105"/>
      <use x="79.550781" xlink:href="#ArialMT-109"/>
      <use x="162.851562" xlink:href="#ArialMT-101"/>
     </g>
    </g>
    <g id="text_40">
     <!-- 1e6 -->
     <g transform="translate(905.180625 257.145568)scale(0.12 -0.12)">
      <use xlink:href="#ArialMT-49"/>
      <use x="55.615234" xlink:href="#ArialMT-101"/>
      <use x="111.230469" xlink:href="#ArialMT-54"/>
     </g>
    </g>
   </g>
   <g id="matplotlib.axis_6">
    <g id="ytick_13">
     <g id="line2d_63">
      <path clip-path="url(#p1644740233)" d="M 668.927273 222.996481 
L 925.2 222.996481 
" style="fill:none;stroke:#b0b0b0;stroke-linecap:square;stroke-opacity:0.25;stroke-width:0.8;"/>
     </g>
     <g id="line2d_64">
      <g>
       <use style="stroke:#000000;stroke-width:0.8;" x="668.927273" xlink:href="#m0c99a2f542" y="222.996481"/>
      </g>
     </g>
     <g id="text_41">
      <!-- 0 -->
      <g transform="translate(655.254148 227.291169)scale(0.12 -0.12)">
       <use xlink:href="#ArialMT-48"/>
      </g>
     </g>
    </g>
    <g id="ytick_14">
     <g id="line2d_65">
      <path clip-path="url(#p1644740233)" d="M 668.927273 188.344396 
L 925.2 188.344396 
" style="fill:none;stroke:#b0b0b0;stroke-linecap:square;stroke-opacity:0.25;stroke-width:0.8;"/>
     </g>
     <g id="line2d_66">
      <g>
       <use style="stroke:#000000;stroke-width:0.8;" x="668.927273" xlink:href="#m0c99a2f542" y="188.344396"/>
      </g>
     </g>
     <g id="text_42">
      <!-- 5 -->
      <g transform="translate(655.254148 192.639083)scale(0.12 -0.12)">
       <use xlink:href="#ArialMT-53"/>
      </g>
     </g>
    </g>
    <g id="ytick_15">
     <g id="line2d_67">
      <path clip-path="url(#p1644740233)" d="M 668.927273 153.69231 
L 925.2 153.69231 
" style="fill:none;stroke:#b0b0b0;stroke-linecap:square;stroke-opacity:0.25;stroke-width:0.8;"/>
     </g>
     <g id="line2d_68">
      <g>
       <use style="stroke:#000000;stroke-width:0.8;" x="668.927273" xlink:href="#m0c99a2f542" y="153.69231"/>
      </g>
     </g>
     <g id="text_43">
      <!-- 10 -->
      <g transform="translate(648.581023 157.986997)scale(0.12 -0.12)">
       <use xlink:href="#ArialMT-49"/>
       <use x="55.615234" xlink:href="#ArialMT-48"/>
      </g>
     </g>
    </g>
    <g id="ytick_16">
     <g id="line2d_69">
      <path clip-path="url(#p1644740233)" d="M 668.927273 119.040224 
L 925.2 119.040224 
" style="fill:none;stroke:#b0b0b0;stroke-linecap:square;stroke-opacity:0.25;stroke-width:0.8;"/>
     </g>
     <g id="line2d_70">
      <g>
       <use style="stroke:#000000;stroke-width:0.8;" x="668.927273" xlink:href="#m0c99a2f542" y="119.040224"/>
      </g>
     </g>
     <g id="text_44">
      <!-- 15 -->
      <g transform="translate(648.581023 123.334911)scale(0.12 -0.12)">
       <use xlink:href="#ArialMT-49"/>
       <use x="55.615234" xlink:href="#ArialMT-53"/>
      </g>
     </g>
    </g>
    <g id="ytick_17">
     <g id="line2d_71">
      <path clip-path="url(#p1644740233)" d="M 668.927273 84.388138 
L 925.2 84.388138 
" style="fill:none;stroke:#b0b0b0;stroke-linecap:square;stroke-opacity:0.25;stroke-width:0.8;"/>
     </g>
     <g id="line2d_72">
      <g>
       <use style="stroke:#000000;stroke-width:0.8;" x="668.927273" xlink:href="#m0c99a2f542" y="84.388138"/>
      </g>
     </g>
     <g id="text_45">
      <!-- 20 -->
      <g transform="translate(648.581023 88.682826)scale(0.12 -0.12)">
       <use xlink:href="#ArialMT-50"/>
       <use x="55.615234" xlink:href="#ArialMT-48"/>
      </g>
     </g>
    </g>
    <g id="text_46">
     <!-- y -->
     <g transform="translate(641.63446 142.525818)rotate(-90)scale(0.14 -0.14)">
      <defs>
       <path d="M 6.203125 -19.96875 
L 5.21875 -11.71875 
Q 8.109375 -12.5 10.25 -12.5 
Q 13.1875 -12.5 14.9375 -11.515625 
Q 16.703125 -10.546875 17.828125 -8.796875 
Q 18.65625 -7.46875 20.515625 -2.25 
Q 20.75 -1.515625 21.296875 -0.09375 
L 1.609375 51.859375 
L 11.078125 51.859375 
L 21.875 21.828125 
Q 23.96875 16.109375 25.640625 9.8125 
Q 27.15625 15.875 29.25 21.625 
L 40.328125 51.859375 
L 49.125 51.859375 
L 29.390625 -0.875 
Q 26.21875 -9.421875 24.46875 -12.640625 
Q 22.125 -17 19.09375 -19.015625 
Q 16.0625 -21.046875 11.859375 -21.046875 
Q 9.328125 -21.046875 6.203125 -19.96875 
z
" id="ArialMT-121"/>
      </defs>
      <use xlink:href="#ArialMT-121"/>
     </g>
    </g>
   </g>
   <g id="line2d_73">
    <path clip-path="url(#p1644740233)" d="M 680.576033 219.531273 
L 680.699772 143.230949 
L 680.946506 114.858095 
L 681.302958 97.789541 
L 681.750271 86.398807 
L 682.272135 78.475784 
L 682.852244 72.872731 
L 683.478947 68.862976 
L 684.145256 65.967087 
L 684.846511 63.86577 
L 685.582713 62.333806 
L 686.36318 61.207023 
L 687.20888 60.369785 
L 688.159419 59.741972 
L 689.282359 59.272102 
L 690.703508 58.928659 
L 692.679138 58.695825 
L 695.922153 58.564406 
L 704.127539 58.521703 
L 901.443561 58.520364 
L 913.55124 58.520364 
L 913.55124 58.520364 
" style="fill:none;stroke:#ff00ff;stroke-linecap:square;stroke-width:2.2;"/>
   </g>
   <g id="patch_13">
    <path d="M 668.927273 227.581818 
L 668.927273 50.469818 
" style="fill:none;stroke:#000000;stroke-linecap:square;stroke-linejoin:miter;stroke-width:0.8;"/>
   </g>
   <g id="patch_14">
    <path d="M 925.2 227.581818 
L 925.2 50.469818 
" style="fill:none;stroke:#000000;stroke-linecap:square;stroke-linejoin:miter;stroke-width:0.8;"/>
   </g>
   <g id="patch_15">
    <path d="M 668.927273 227.581818 
L 925.2 227.581818 
" style="fill:none;stroke:#000000;stroke-linecap:square;stroke-linejoin:miter;stroke-width:0.8;"/>
   </g>
   <g id="patch_16">
    <path d="M 668.927273 50.469818 
L 925.2 50.469818 
" style="fill:none;stroke:#000000;stroke-linecap:square;stroke-linejoin:miter;stroke-width:0.8;"/>
   </g>
   <g id="text_47">
    <!-- y(t) — ESS -->
    <g transform="translate(757.059886 44.469818)scale(0.16 -0.16)">
     <use xlink:href="#ArialMT-121"/>
     <use x="50" xlink:href="#ArialMT-40"/>
     <use x="83.300781" xlink:href="#ArialMT-116"/>
     <use x="111.083984" xlink:href="#ArialMT-41"/>
     <use x="144.384766" xlink:href="#ArialMT-32"/>
     <use x="172.167969" xlink:href="#ArialMT-8212"/>
     <use x="272.167969" xlink:href="#ArialMT-32"/>
     <use x="299.951172" xlink:href="#ArialMT-69"/>
     <use x="366.650391" xlink:href="#ArialMT-83"/>
     <use x="433.349609" xlink:href="#ArialMT-83"/>
    </g>
   </g>
  </g>
  <g id="text_48">
   <!-- ESS (evolving N) — h=0.07 | q=0.5 | R=100.0, a=0.05, k=0.05, c=0.01, h=0.07, f=0.005, σ_u=0.9, σ_y=0.9, t_max=5000000 -->
   <g transform="translate(29.46125 14.3835)scale(0.16 -0.16)">
    <defs>
     <path d="M 21 0 
L 1.265625 51.859375 
L 10.546875 51.859375 
L 21.6875 20.796875 
Q 23.484375 15.765625 25 10.359375 
Q 26.171875 14.453125 28.265625 20.21875 
L 39.796875 51.859375 
L 48.828125 51.859375 
L 29.203125 0 
z
" id="ArialMT-118"/>
     <path d="M 3.328125 25.921875 
Q 3.328125 40.328125 11.328125 47.265625 
Q 18.015625 53.03125 27.640625 53.03125 
Q 38.328125 53.03125 45.109375 46.015625 
Q 51.90625 39.015625 51.90625 26.65625 
Q 51.90625 16.65625 48.90625 10.90625 
Q 45.90625 5.171875 40.15625 2 
Q 34.421875 -1.171875 27.640625 -1.171875 
Q 16.75 -1.171875 10.03125 5.8125 
Q 3.328125 12.796875 3.328125 25.921875 
z
M 12.359375 25.921875 
Q 12.359375 15.96875 16.703125 11.015625 
Q 21.046875 6.0625 27.640625 6.0625 
Q 34.1875 6.0625 38.53125 11.03125 
Q 42.875 16.015625 42.875 26.21875 
Q 42.875 35.84375 38.5 40.796875 
Q 34.125 45.75 27.640625 45.75 
Q 21.046875 45.75 16.703125 40.8125 
Q 12.359375 35.890625 12.359375 25.921875 
z
" id="ArialMT-111"/>
     <path d="M 6.390625 0 
L 6.390625 71.578125 
L 15.1875 71.578125 
L 15.1875 0 
z
" id="ArialMT-108"/>
     <path d="M 6.59375 0 
L 6.59375 51.859375 
L 14.5 51.859375 
L 14.5 44.484375 
Q 20.21875 53.03125 31 53.03125 
Q 35.6875 53.03125 39.625 51.34375 
Q 43.5625 49.65625 45.515625 46.921875 
Q 47.46875 44.1875 48.25 40.4375 
Q 48.734375 37.984375 48.734375 31.890625 
L 48.734375 0 
L 39.9375 0 
L 39.9375 31.546875 
Q 39.9375 36.921875 38.90625 39.578125 
Q 37.890625 42.234375 35.28125 43.8125 
Q 32.671875 45.40625 29.15625 45.40625 
Q 23.53125 45.40625 19.453125 41.84375 
Q 15.375 38.28125 15.375 28.328125 
L 15.375 0 
z
" id="ArialMT-110"/>
     <path d="M 4.984375 -4.296875 
L 13.53125 -5.5625 
Q 14.0625 -9.515625 16.5 -11.328125 
Q 19.78125 -13.765625 25.4375 -13.765625 
Q 31.546875 -13.765625 34.859375 -11.328125 
Q 38.1875 -8.890625 39.359375 -4.5 
Q 40.046875 -1.8125 39.984375 6.78125 
Q 34.234375 0 25.640625 0 
Q 14.9375 0 9.078125 7.71875 
Q 3.21875 15.4375 3.21875 26.21875 
Q 3.21875 33.640625 5.90625 39.90625 
Q 8.59375 46.1875 13.6875 49.609375 
Q 18.796875 53.03125 25.6875 53.03125 
Q 34.859375 53.03125 40.828125 45.609375 
L 40.828125 51.859375 
L 48.921875 51.859375 
L 48.921875 7.03125 
Q 48.921875 -5.078125 46.453125 -10.125 
Q 44 -15.1875 38.640625 -18.109375 
Q 33.296875 -21.046875 25.484375 -21.046875 
Q 16.21875 -21.046875 10.5 -16.875 
Q 4.78125 -12.703125 4.984375 -4.296875 
z
M 12.25 26.859375 
Q 12.25 16.65625 16.296875 11.96875 
Q 20.359375 7.28125 26.46875 7.28125 
Q 32.515625 7.28125 36.609375 11.9375 
Q 40.71875 16.609375 40.71875 26.5625 
Q 40.71875 36.078125 36.5 40.90625 
Q 32.28125 45.75 26.3125 45.75 
Q 20.453125 45.75 16.34375 40.984375 
Q 12.25 36.234375 12.25 26.859375 
z
" id="ArialMT-103"/>
     <path d="M 6.59375 0 
L 6.59375 71.578125 
L 15.375 71.578125 
L 15.375 45.90625 
Q 21.53125 53.03125 30.90625 53.03125 
Q 36.671875 53.03125 40.921875 50.75 
Q 45.171875 48.484375 47 44.484375 
Q 48.828125 40.484375 48.828125 32.859375 
L 48.828125 0 
L 40.046875 0 
L 40.046875 32.859375 
Q 40.046875 39.453125 37.1875 42.453125 
Q 34.328125 45.453125 29.109375 45.453125 
Q 25.203125 45.453125 21.75 43.421875 
Q 18.3125 41.40625 16.84375 37.9375 
Q 15.375 34.46875 15.375 28.375 
L 15.375 0 
z
" id="ArialMT-104"/>
     <path d="M 52.828125 42.09375 
L 5.5625 42.09375 
L 5.5625 50.296875 
L 52.828125 50.296875 
z
M 52.828125 20.359375 
L 5.5625 20.359375 
L 5.5625 28.5625 
L 52.828125 28.5625 
z
" id="ArialMT-61"/>
     <path d="M 9.078125 0 
L 9.078125 10.015625 
L 19.09375 10.015625 
L 19.09375 0 
z
" id="ArialMT-46"/>
     <path d="M 9.1875 -21.046875 
L 9.1875 72.796875 
L 16.84375 72.796875 
L 16.84375 -21.046875 
z
" id="ArialMT-124"/>
     <path d="M 39.65625 -19.875 
L 39.65625 5.515625 
Q 37.59375 2.640625 33.90625 0.734375 
Q 30.21875 -1.171875 26.078125 -1.171875 
Q 16.84375 -1.171875 10.171875 6.203125 
Q 3.515625 13.578125 3.515625 26.421875 
Q 3.515625 34.234375 6.21875 40.421875 
Q 8.9375 46.625 14.078125 49.828125 
Q 19.234375 53.03125 25.390625 53.03125 
Q 35.015625 53.03125 40.53125 44.921875 
L 40.53125 51.859375 
L 48.4375 51.859375 
L 48.4375 -19.875 
z
M 12.546875 26.078125 
Q 12.546875 16.0625 16.75 11.0625 
Q 20.953125 6.0625 26.8125 6.0625 
Q 32.421875 6.0625 36.46875 10.8125 
Q 40.53125 15.578125 40.53125 25.296875 
Q 40.53125 35.640625 36.25 40.859375 
Q 31.984375 46.09375 26.21875 46.09375 
Q 20.515625 46.09375 16.53125 41.234375 
Q 12.546875 36.375 12.546875 26.078125 
z
" id="ArialMT-113"/>
     <path d="M 7.859375 0 
L 7.859375 71.578125 
L 39.59375 71.578125 
Q 49.171875 71.578125 54.140625 69.640625 
Q 59.125 67.71875 62.109375 62.828125 
Q 65.09375 57.953125 65.09375 52.046875 
Q 65.09375 44.4375 60.15625 39.203125 
Q 55.21875 33.984375 44.921875 32.5625 
Q 48.6875 30.765625 50.640625 29 
Q 54.78125 25.203125 58.5 19.484375 
L 70.953125 0 
L 59.03125 0 
L 49.5625 14.890625 
Q 45.40625 21.34375 42.71875 24.75 
Q 40.046875 28.171875 37.921875 29.53125 
Q 35.796875 30.90625 33.59375 31.453125 
Q 31.984375 31.78125 28.328125 31.78125 
L 17.328125 31.78125 
L 17.328125 0 
z
M 17.328125 39.984375 
L 37.703125 39.984375 
Q 44.1875 39.984375 47.84375 41.328125 
Q 51.515625 42.671875 53.421875 45.625 
Q 55.328125 48.578125 55.328125 52.046875 
Q 55.328125 57.125 51.640625 60.390625 
Q 47.953125 63.671875 39.984375 63.671875 
L 17.328125 63.671875 
z
" id="ArialMT-82"/>
     <path d="M 8.890625 0 
L 8.890625 10.015625 
L 18.890625 10.015625 
L 18.890625 0 
Q 18.890625 -5.515625 16.9375 -8.90625 
Q 14.984375 -12.3125 10.75 -14.15625 
L 8.296875 -10.40625 
Q 11.078125 -9.1875 12.390625 -6.8125 
Q 13.71875 -4.4375 13.875 0 
z
" id="ArialMT-44"/>
     <path d="M 40.4375 6.390625 
Q 35.546875 2.25 31.03125 0.53125 
Q 26.515625 -1.171875 21.34375 -1.171875 
Q 12.796875 -1.171875 8.203125 3 
Q 3.609375 7.171875 3.609375 13.671875 
Q 3.609375 17.484375 5.34375 20.625 
Q 7.078125 23.78125 9.890625 25.6875 
Q 12.703125 27.59375 16.21875 28.5625 
Q 18.796875 29.25 24.03125 29.890625 
Q 34.671875 31.15625 39.703125 32.90625 
Q 39.75 34.71875 39.75 35.203125 
Q 39.75 40.578125 37.25 42.78125 
Q 33.890625 45.75 27.25 45.75 
Q 21.046875 45.75 18.09375 43.578125 
Q 15.140625 41.40625 13.71875 35.890625 
L 5.125 37.0625 
Q 6.296875 42.578125 8.984375 45.96875 
Q 11.671875 49.359375 16.75 51.1875 
Q 21.828125 53.03125 28.515625 53.03125 
Q 35.15625 53.03125 39.296875 51.46875 
Q 43.453125 49.90625 45.40625 47.53125 
Q 47.359375 45.171875 48.140625 41.546875 
Q 48.578125 39.3125 48.578125 33.453125 
L 48.578125 21.734375 
Q 48.578125 9.46875 49.140625 6.21875 
Q 49.703125 2.984375 51.375 0 
L 42.1875 0 
Q 40.828125 2.734375 40.4375 6.390625 
z
M 39.703125 26.03125 
Q 34.90625 24.078125 25.34375 22.703125 
Q 19.921875 21.921875 17.671875 20.9375 
Q 15.4375 19.96875 14.203125 18.09375 
Q 12.984375 16.21875 12.984375 13.921875 
Q 12.984375 10.40625 15.640625 8.0625 
Q 18.3125 5.71875 23.4375 5.71875 
Q 28.515625 5.71875 32.46875 7.9375 
Q 36.421875 10.15625 38.28125 14.015625 
Q 39.703125 17 39.703125 22.796875 
z
" id="ArialMT-97"/>
     <path d="M 6.640625 0 
L 6.640625 71.578125 
L 15.4375 71.578125 
L 15.4375 30.765625 
L 36.234375 51.859375 
L 47.609375 51.859375 
L 27.78125 32.625 
L 49.609375 0 
L 38.765625 0 
L 21.625 26.515625 
L 15.4375 20.5625 
L 15.4375 0 
z
" id="ArialMT-107"/>
     <path d="M 40.4375 19 
L 49.078125 17.875 
Q 47.65625 8.9375 41.8125 3.875 
Q 35.984375 -1.171875 27.484375 -1.171875 
Q 16.84375 -1.171875 10.375 5.78125 
Q 3.90625 12.75 3.90625 25.734375 
Q 3.90625 34.125 6.6875 40.421875 
Q 9.46875 46.734375 15.15625 49.875 
Q 20.84375 53.03125 27.546875 53.03125 
Q 35.984375 53.03125 41.359375 48.75 
Q 46.734375 44.484375 48.25 36.625 
L 39.703125 35.296875 
Q 38.484375 40.53125 35.375 43.15625 
Q 32.28125 45.796875 27.875 45.796875 
Q 21.234375 45.796875 17.078125 41.03125 
Q 12.9375 36.28125 12.9375 25.984375 
Q 12.9375 15.53125 16.9375 10.796875 
Q 20.953125 6.0625 27.390625 6.0625 
Q 32.5625 6.0625 36.03125 9.234375 
Q 39.5 12.40625 40.4375 19 
z
" id="ArialMT-99"/>
     <path d="M 8.6875 0 
L 8.6875 45.015625 
L 0.921875 45.015625 
L 0.921875 51.859375 
L 8.6875 51.859375 
L 8.6875 57.375 
Q 8.6875 62.59375 9.625 65.140625 
Q 10.890625 68.5625 14.078125 70.671875 
Q 17.28125 72.796875 23.046875 72.796875 
Q 26.765625 72.796875 31.25 71.921875 
L 29.9375 64.265625 
Q 27.203125 64.75 24.75 64.75 
Q 20.75 64.75 19.09375 63.03125 
Q 17.4375 61.328125 17.4375 56.640625 
L 17.4375 51.859375 
L 27.546875 51.859375 
L 27.546875 45.015625 
L 17.4375 45.015625 
L 17.4375 0 
z
" id="ArialMT-102"/>
     <path d="M 59.515625 51.859375 
L 59.515625 44.734375 
L 45.40625 44.734375 
Q 51.90625 38.671875 51.90625 25.875 
Q 51.90625 11.96875 44.796875 5.390625 
Q 37.703125 -1.171875 27.546875 -1.171875 
Q 17 -1.171875 10.15625 5.65625 
Q 3.328125 12.5 3.328125 25.921875 
Q 3.328125 39.75 10.421875 46.390625 
Q 17.53125 53.03125 27.546875 53.03125 
Q 31.203125 53.03125 35.84375 51.859375 
z
M 27.390625 45.75 
Q 21 45.75 16.671875 40.765625 
Q 12.359375 35.796875 12.359375 25.875 
Q 12.359375 16.015625 16.578125 11.03125 
Q 20.796875 6.0625 27.546875 6.0625 
Q 34.625 6.0625 38.796875 11.25 
Q 42.96875 16.453125 42.96875 25.921875 
Q 42.96875 34.578125 39.125 40.15625 
Q 35.296875 45.75 27.390625 45.75 
z
" id="ArialMT-963"/>
     <path d="M -1.515625 -19.875 
L -1.515625 -13.53125 
L 56.734375 -13.53125 
L 56.734375 -19.875 
z
" id="ArialMT-95"/>
     <path d="M 5.46875 16.546875 
L 13.921875 17.328125 
Q 14.984375 11.375 18.015625 8.6875 
Q 21.046875 6 25.78125 6 
Q 29.828125 6 32.875 7.859375 
Q 35.9375 9.71875 37.890625 12.8125 
Q 39.84375 15.921875 41.15625 21.1875 
Q 42.484375 26.46875 42.484375 31.9375 
Q 42.484375 32.515625 42.4375 33.6875 
Q 39.796875 29.5 35.234375 26.875 
Q 30.671875 24.265625 25.34375 24.265625 
Q 16.453125 24.265625 10.296875 30.703125 
Q 4.15625 37.15625 4.15625 47.703125 
Q 4.15625 58.59375 10.578125 65.234375 
Q 17 71.875 26.65625 71.875 
Q 33.640625 71.875 39.421875 68.109375 
Q 45.21875 64.359375 48.21875 57.390625 
Q 51.21875 50.4375 51.21875 37.25 
Q 51.21875 23.53125 48.234375 15.40625 
Q 45.265625 7.28125 39.375 3.03125 
Q 33.5 -1.21875 25.59375 -1.21875 
Q 17.1875 -1.21875 11.859375 3.4375 
Q 6.546875 8.109375 5.46875 16.546875 
z
M 41.453125 48.140625 
Q 41.453125 55.71875 37.421875 60.15625 
Q 33.40625 64.59375 27.734375 64.59375 
Q 21.875 64.59375 17.53125 59.8125 
Q 13.1875 55.03125 13.1875 47.40625 
Q 13.1875 40.578125 17.3125 36.296875 
Q 21.4375 32.03125 27.484375 32.03125 
Q 33.59375 32.03125 37.515625 36.296875 
Q 41.453125 40.578125 41.453125 48.140625 
z
" id="ArialMT-57"/>
     <path d="M 0.734375 0 
L 19.671875 26.953125 
L 2.15625 51.859375 
L 13.140625 51.859375 
L 21.09375 39.703125 
Q 23.34375 36.234375 24.703125 33.890625 
Q 26.859375 37.109375 28.65625 39.59375 
L 37.40625 51.859375 
L 47.90625 51.859375 
L 29.984375 27.4375 
L 49.265625 0 
L 38.484375 0 
L 27.828125 16.109375 
L 25 20.453125 
L 11.375 0 
z
" id="ArialMT-120"/>
    </defs>
    <use xlink:href="#ArialMT-69"/>
    <use x="66.699219" xlink:href="#ArialMT-83"/>
    <use x="133.398438" xlink:href="#ArialMT-83"/>
    <use x="200.097656" xlink:href="#ArialMT-32"/>
    <use x="227.880859" xlink:href="#ArialMT-40"/>
    <use x="261.181641" xlink:href="#ArialMT-101"/>
    <use x="316.796875" xlink:href="#ArialMT-118"/>
    <use x="366.796875" xlink:href="#ArialMT-111"/>
    <use x="422.412109" xlink:href="#ArialMT-108"/>
    <use x="444.628906" xlink:href="#ArialMT-118"/>
    <use x="494.628906" xlink:href="#ArialMT-105"/>
    <use x="516.845703" xlink:href="#ArialMT-110"/>
    <use x="572.460938" xlink:href="#ArialMT-103"/>
    <use x="628.076172" xlink:href="#ArialMT-32"/>
    <use x="655.859375" xlink:href="#ArialMT-78"/>
    <use x="728.076172" xlink:href="#ArialMT-41"/>
    <use x="761.376953" xlink:href="#ArialMT-32"/>
    <use x="789.160156" xlink:href="#ArialMT-8212"/>
    <use x="889.160156" xlink:href="#ArialMT-32"/>
    <use x="916.943359" xlink:href="#ArialMT-104"/>
    <use x="972.558594" xlink:href="#ArialMT-61"/>
    <use x="1030.957031" xlink:href="#ArialMT-48"/>
    <use x="1086.572266" xlink:href="#ArialMT-46"/>
    <use x="1114.355469" xlink:href="#ArialMT-48"/>
    <use x="1169.970703" xlink:href="#ArialMT-55"/>
    <use x="1225.585938" xlink:href="#ArialMT-32"/>
    <use x="1253.369141" xlink:href="#ArialMT-124"/>
    <use x="1279.345703" xlink:href="#ArialMT-32"/>
    <use x="1307.128906" xlink:href="#ArialMT-113"/>
    <use x="1362.744141" xlink:href="#ArialMT-61"/>
    <use x="1421.142578" xlink:href="#ArialMT-48"/>
    <use x="1476.757812" xlink:href="#ArialMT-46"/>
    <use x="1504.541016" xlink:href="#ArialMT-53"/>
    <use x="1560.15625" xlink:href="#ArialMT-32"/>
    <use x="1587.939453" xlink:href="#ArialMT-124"/>
    <use x="1613.916016" xlink:href="#ArialMT-32"/>
    <use x="1641.699219" xlink:href="#ArialMT-82"/>
    <use x="1713.916016" xlink:href="#ArialMT-61"/>
    <use x="1772.314453" xlink:href="#ArialMT-49"/>
    <use x="1827.929688" xlink:href="#ArialMT-48"/>
    <use x="1883.544922" xlink:href="#ArialMT-48"/>
    <use x="1939.160156" xlink:href="#ArialMT-46"/>
    <use x="1966.943359" xlink:href="#ArialMT-48"/>
    <use x="2022.558594" xlink:href="#ArialMT-44"/>
    <use x="2050.341797" xlink:href="#ArialMT-32"/>
    <use x="2078.125" xlink:href="#ArialMT-97"/>
    <use x="2133.740234" xlink:href="#ArialMT-61"/>
    <use x="2192.138672" xlink:href="#ArialMT-48"/>
    <use x="2247.753906" xlink:href="#ArialMT-46"/>
    <use x="2275.537109" xlink:href="#ArialMT-48"/>
    <use x="2331.152344" xlink:href="#ArialMT-53"/>
    <use x="2386.767578" xlink:href="#ArialMT-44"/>
    <use x="2414.550781" xlink:href="#ArialMT-32"/>
    <use x="2442.333984" xlink:href="#ArialMT-107"/>
    <use x="2492.333984" xlink:href="#ArialMT-61"/>
    <use x="2550.732422" xlink:href="#ArialMT-48"/>
    <use x="2606.347656" xlink:href="#ArialMT-46"/>
    <use x="2634.130859" xlink:href="#ArialMT-48"/>
    <use x="2689.746094" xlink:href="#ArialMT-53"/>
    <use x="2745.361328" xlink:href="#ArialMT-44"/>
    <use x="2773.144531" xlink:href="#ArialMT-32"/>
    <use x="2800.927734" xlink:href="#ArialMT-99"/>
    <use x="2850.927734" xlink:href="#ArialMT-61"/>
    <use x="2909.326172" xlink:href="#ArialMT-48"/>
    <use x="2964.941406" xlink:href="#ArialMT-46"/>
    <use x="2992.724609" xlink:href="#ArialMT-48"/>
    <use x="3048.339844" xlink:href="#ArialMT-49"/>
    <use x="3103.955078" xlink:href="#ArialMT-44"/>
    <use x="3131.738281" xlink:href="#ArialMT-32"/>
    <use x="3159.521484" xlink:href="#ArialMT-104"/>
    <use x="3215.136719" xlink:href="#ArialMT-61"/>
    <use x="3273.535156" xlink:href="#ArialMT-48"/>
    <use x="3329.150391" xlink:href="#ArialMT-46"/>
    <use x="3356.933594" xlink:href="#ArialMT-48"/>
    <use x="3412.548828" xlink:href="#ArialMT-55"/>
    <use x="3468.164062" xlink:href="#ArialMT-44"/>
    <use x="3495.947266" xlink:href="#ArialMT-32"/>
    <use x="3523.730469" xlink:href="#ArialMT-102"/>
    <use x="3551.513672" xlink:href="#ArialMT-61"/>
    <use x="3609.912109" xlink:href="#ArialMT-48"/>
    <use x="3665.527344" xlink:href="#ArialMT-46"/>
    <use x="3693.310547" xlink:href="#ArialMT-48"/>
    <use x="3748.925781" xlink:href="#ArialMT-48"/>
    <use x="3804.541016" xlink:href="#ArialMT-53"/>
    <use x="3860.15625" xlink:href="#ArialMT-44"/>
    <use x="3887.939453" xlink:href="#ArialMT-32"/>
    <use x="3915.722656" xlink:href="#ArialMT-963"/>
    <use x="3977.441406" xlink:href="#ArialMT-95"/>
    <use x="4033.056641" xlink:href="#ArialMT-117"/>
    <use x="4088.671875" xlink:href="#ArialMT-61"/>
    <use x="4147.070312" xlink:href="#ArialMT-48"/>
    <use x="4202.685547" xlink:href="#ArialMT-46"/>
    <use x="4230.46875" xlink:href="#ArialMT-57"/>
    <use x="4286.083984" xlink:href="#ArialMT-44"/>
    <use x="4313.867188" xlink:href="#ArialMT-32"/>
    <use x="4341.650391" xlink:href="#ArialMT-963"/>
    <use x="4403.369141" xlink:href="#ArialMT-95"/>
    <use x="4458.984375" xlink:href="#ArialMT-121"/>
    <use x="4508.984375" xlink:href="#ArialMT-61"/>
    <use x="4567.382812" xlink:href="#ArialMT-48"/>
    <use x="4622.998047" xlink:href="#ArialMT-46"/>
    <use x="4650.78125" xlink:href="#ArialMT-57"/>
    <use x="4706.396484" xlink:href="#ArialMT-44"/>
    <use x="4734.179688" xlink:href="#ArialMT-32"/>
    <use x="4761.962891" xlink:href="#ArialMT-116"/>
    <use x="4789.746094" xlink:href="#ArialMT-95"/>
    <use x="4845.361328" xlink:href="#ArialMT-109"/>
    <use x="4928.662109" xlink:href="#ArialMT-97"/>
    <use x="4984.277344" xlink:href="#ArialMT-120"/>
    <use x="5034.277344" xlink:href="#ArialMT-61"/>
    <use x="5092.675781" xlink:href="#ArialMT-53"/>
    <use x="5148.291016" xlink:href="#ArialMT-48"/>
    <use x="5203.90625" xlink:href="#ArialMT-48"/>
    <use x="5259.521484" xlink:href="#ArialMT-48"/>
    <use x="5315.136719" xlink:href="#ArialMT-48"/>
    <use x="5370.751953" xlink:href="#ArialMT-48"/>
    <use x="5426.367188" xlink:href="#ArialMT-48"/>
   </g>
  </g>
 </g>
 <defs>
  <clipPath id="pa4a15439cf">
   <rect height="177.112" width="256.272727" x="47.654545" y="50.469818"/>
  </clipPath>
  <clipPath id="p78a411a8b3">
   <rect height="177.112" width="256.272727" x="358.290909" y="50.469818"/>
  </clipPath>
  <clipPath id="p1644740233">
   <rect height="177.112" width="256.272727" x="668.927273" y="50.469818"/>
  </clipPath>
 </defs>
</svg>
